<svg version="1.1" id="Layer_1" xmlns="http://www.w3.org/2000/svg" xmlns:xlink="http://www.w3.org/1999/xlink" x="0px" y="0px"
	 width="100%" viewBox="0 0 708 377" enable-background="new 0 0 708 377" xml:space="preserve">
<path fill="#FFFFFF" opacity="1.000000" stroke="none" 
	d="
M418.000000,378.000000 
	C278.698639,378.000000 139.897293,378.000000 1.047975,378.000000 
	C1.047975,252.394287 1.047975,126.788544 1.047975,1.091400 
	C236.884674,1.091400 472.769379,1.091400 708.827026,1.091400 
	C708.827026,126.666481 708.827026,252.333221 708.827026,378.000000 
	C612.121887,378.000000 515.310974,378.000000 418.000000,378.000000 
M357.915649,232.289703 
	C356.511871,231.584427 355.108063,230.879150 352.925079,230.092514 
	C349.189972,229.433914 345.462128,228.259857 341.718506,228.207352 
	C326.784576,227.997894 311.844757,228.035172 296.909027,228.178604 
	C283.688049,228.305542 273.494049,233.395248 268.389893,246.388229 
	C267.486603,248.687576 266.342804,250.892456 264.500763,253.046082 
	C263.224640,252.836395 261.948517,252.626694 260.546265,252.396271 
	C259.362976,257.239990 258.068024,261.942474 257.171478,266.719788 
	C256.993835,267.666351 258.345978,268.899963 258.985046,270.742859 
	C257.992004,273.164337 256.998962,275.585846 255.289337,278.117523 
	C254.362717,279.436005 252.748291,280.693176 252.624405,282.083221 
	C251.965866,289.472961 250.389999,297.127625 251.665085,304.236145 
	C252.732819,310.188660 256.010071,317.109802 260.579498,320.758728 
	C267.974060,326.663666 277.189240,329.954712 287.395111,329.111816 
	C294.504150,328.524719 301.704620,329.147156 308.857483,328.964325 
	C319.866821,328.682953 330.746368,329.555206 341.762848,325.954468 
	C353.623383,322.077942 359.367737,313.508575 362.694672,303.226227 
	C366.123535,292.628723 367.960968,281.426331 369.530182,270.351929 
	C370.425171,264.035797 373.252899,257.300568 368.991028,250.236084 
	C367.754852,248.475327 366.518677,246.714554 365.142120,244.316025 
	C365.125610,243.881805 365.109131,243.447601 365.720215,242.903275 
	C367.644806,239.717010 365.502808,238.763367 362.898346,237.635468 
	C362.898346,237.635468 362.856903,237.257401 362.896179,236.501282 
	C361.255646,235.341064 359.615082,234.180832 358.002167,233.002609 
	C358.002167,233.002609 357.980316,233.029648 357.915649,232.289703 
M193.006317,120.029114 
	C193.006317,120.029114 192.952835,120.063400 192.987137,119.124290 
	C192.686722,114.720413 192.491608,110.305939 192.049957,105.916275 
	C191.739853,102.834129 190.733704,99.791473 190.685181,96.720955 
	C190.618088,92.475220 187.175507,88.694321 182.147217,89.007172 
	C180.428406,88.995247 178.709579,88.983330 176.649750,88.523552 
	C176.092712,88.997978 175.535690,89.472397 174.716019,90.476707 
	C174.120743,90.974800 173.525467,91.472885 172.199417,92.076546 
	C171.157074,93.240639 169.101227,94.537132 169.233261,95.547829 
	C170.258301,103.394653 163.264725,107.558746 160.984100,113.884636 
	C160.083572,116.382408 156.391144,117.873619 153.316528,120.173065 
	C136.580673,126.407608 124.900368,137.498520 119.184135,155.133743 
	C114.875534,161.114548 113.376564,168.062042 114.259506,175.055023 
	C114.832100,179.590103 111.261208,184.738373 115.950218,188.711990 
	C114.853584,196.556549 120.038635,201.488312 124.334343,206.843658 
	C125.937927,208.842804 127.459785,210.907486 128.498871,212.263580 
	C126.612030,214.074173 125.280418,215.351959 123.034973,216.803391 
	C109.056610,216.885498 95.078255,216.967606 80.299629,217.015289 
	C79.210243,217.522644 77.418449,217.787659 77.146164,218.576904 
	C75.456833,223.473648 71.789749,227.344406 72.709923,233.601013 
	C74.132072,243.270767 76.209282,247.802933 85.809555,249.587723 
	C93.221596,250.965714 100.955048,250.793106 108.552994,250.948898 
	C118.572632,251.154327 121.633514,254.908188 119.239357,264.661957 
	C117.952248,269.905609 116.154335,275.088348 115.537033,280.408844 
	C115.139397,283.835968 116.466896,287.463257 117.032684,291.666901 
	C116.967239,292.105560 116.901794,292.544220 116.170074,293.082581 
	C109.623978,298.923126 107.661255,312.092194 112.243645,319.427460 
	C117.118874,327.231537 130.958466,328.607178 134.169464,321.175537 
	C138.557343,311.020172 141.980560,300.427673 145.391220,289.884705 
	C146.244064,287.248444 145.016464,284.001984 145.535278,281.181366 
	C146.519791,275.828766 147.896576,270.527771 149.456894,265.308899 
	C150.496704,261.830933 151.854797,258.370605 153.653732,255.237244 
	C154.322998,254.071503 156.841461,253.103806 158.168564,253.436081 
	C159.359909,253.734375 160.372345,255.834198 160.901810,257.337219 
	C161.308701,258.492279 160.969894,259.977325 160.742752,261.277191 
	C159.549576,268.105194 157.840576,274.877960 157.177261,281.753510 
	C156.556229,288.190979 152.621216,293.811218 153.490311,300.640259 
	C154.055847,305.084076 152.815613,309.730042 153.063492,314.248230 
	C153.457748,321.434692 158.696671,325.964203 165.900879,325.997437 
	C173.661346,326.033234 178.768097,321.793243 180.950470,313.356781 
	C182.972504,305.540009 184.844757,297.684387 186.878281,289.870728 
	C188.160614,284.943390 189.823105,280.107880 190.942123,275.147064 
	C192.170563,269.701263 192.786774,264.117554 194.009674,258.670258 
	C195.203308,253.353455 199.095261,251.241669 204.286850,250.986649 
	C209.742798,250.718658 215.191055,250.110748 220.646652,250.057404 
	C231.654236,249.949768 238.115143,244.997437 237.766769,232.186630 
	C237.674042,228.776306 235.232483,225.429855 233.401428,221.638992 
	C232.602692,220.415070 231.803970,219.191162 230.945709,217.393188 
	C230.304428,217.242004 229.663147,217.090820 228.082382,216.971191 
	C219.738998,216.854935 211.395599,216.738663 202.985748,215.934647 
	C201.526703,214.943466 200.067657,213.952271 197.537430,212.233398 
	C200.661255,209.964172 203.667969,207.827225 206.616257,205.612534 
	C207.640137,204.843384 208.892715,204.058563 209.404190,202.979187 
	C212.808716,195.794586 216.452698,188.680817 219.207260,181.243439 
	C221.724594,174.446594 223.741882,167.428085 221.558899,159.863266 
	C220.300980,155.504074 220.089966,150.842773 219.522232,147.076950 
	C218.181580,144.738617 217.206207,142.686523 215.886551,140.886902 
	C215.247437,140.015381 213.962463,139.617493 212.866455,138.640442 
	C212.866455,138.640442 212.886536,138.261871 212.783493,137.712433 
	C212.510117,137.473877 212.236740,137.235321 211.585846,136.448578 
	C206.690826,131.698273 201.795807,126.947960 196.858337,121.435860 
	C195.555191,120.972755 194.252029,120.509644 193.006317,120.029114 
M475.449768,265.134949 
	C473.163239,267.745331 470.298035,270.059692 468.765472,273.055725 
	C467.435730,275.655365 467.615112,279.026917 467.079926,282.704102 
	C467.040131,283.134613 467.000366,283.565155 466.203491,284.010223 
	C465.004700,284.959442 462.860870,285.818207 462.759979,286.872467 
	C462.092194,293.851196 461.450745,300.887573 461.715546,307.870483 
	C461.807587,310.297241 464.496185,312.625519 466.104004,315.681519 
	C468.069763,317.454590 470.035492,319.227661 472.076721,321.702332 
	C476.990173,327.453003 483.436401,329.936188 490.787994,329.963318 
	C515.608826,330.054871 540.435791,330.270905 565.246460,329.761322 
	C570.037659,329.662903 575.660645,327.568878 579.311951,324.503784 
	C584.677002,320.000092 584.337952,304.982880 579.923767,299.121613 
	C579.517517,298.582153 578.539368,298.473389 577.932251,298.090057 
	C577.932251,298.090057 577.834290,298.154083 577.881165,297.408722 
	C576.785400,296.666870 575.689575,295.925049 573.828064,295.215820 
	C572.557739,295.091919 571.287476,294.968048 570.021057,294.131409 
	C571.233459,292.711700 572.290833,291.111694 573.689819,289.909088 
	C576.802063,287.233765 580.499634,285.130859 583.212280,282.121796 
	C588.834534,275.885223 593.278625,269.008148 591.054199,259.845978 
	C589.914429,255.151291 587.662781,250.162399 588.395203,245.715149 
	C589.387878,239.687866 587.071899,240.086700 582.784302,240.381516 
	C578.332642,233.021561 572.040405,229.008255 563.207275,229.038879 
	C539.145081,229.122360 515.082336,229.057388 490.613312,228.510727 
	C489.415924,229.356049 488.218506,230.201370 486.795258,231.582855 
	C486.449921,232.051376 486.104584,232.519882 485.219574,233.078262 
	C485.154724,233.721771 485.089874,234.365280 485.045258,235.754852 
	C484.984894,236.498032 484.924561,237.241226 484.077515,238.015594 
	C483.058014,239.055420 481.224274,240.048889 481.161987,241.143219 
	C480.911011,245.551590 480.855865,250.035660 481.409698,254.405396 
	C481.873932,258.068085 481.381500,260.751648 477.947968,262.621094 
	C477.132416,263.065125 476.747314,264.299713 476.028168,265.051636 
	C476.028168,265.051636 476.160065,265.162994 475.449768,265.134949 
M261.332581,131.710800 
	C256.374023,130.012085 257.080017,133.464157 256.977509,136.945953 
	C255.394073,138.660980 253.810623,140.376007 251.484268,142.113373 
	C248.337860,144.683777 243.047928,146.017624 245.789948,152.002167 
	C245.882645,152.204514 245.542725,152.590134 245.435837,152.901123 
	C243.645981,158.109100 240.869614,163.214645 240.308716,168.552689 
	C239.478378,176.455185 239.677368,184.194077 244.998886,191.572495 
	C252.281830,201.670486 261.817993,207.788651 273.555817,207.705505 
	C300.066010,207.517731 326.698425,210.469238 353.073090,205.868958 
	C356.277283,205.310074 359.910614,203.204010 361.937653,200.683212 
	C367.222046,194.111664 365.624329,177.938339 359.457733,172.208923 
	C358.284882,171.119217 355.835754,171.403214 353.041199,171.065369 
	C328.030609,170.988495 303.020050,170.911621 278.032196,170.079300 
	C280.544464,169.052887 283.041901,167.182358 285.571381,167.137970 
	C301.209900,166.863495 316.866577,167.346008 332.494415,166.853729 
	C340.286407,166.608261 348.678162,167.690842 355.279419,161.457657 
	C356.645355,160.167908 358.950195,159.932831 360.641907,158.912537 
	C362.739441,157.647430 365.156799,156.447601 366.553772,154.564941 
	C373.302216,145.470306 378.683746,135.486801 375.738220,123.854668 
	C374.226898,117.886284 370.048279,112.593315 366.937958,106.304932 
	C362.408325,98.142677 355.696869,94.670525 346.168182,94.833755 
	C322.613678,95.237228 299.047363,95.006828 275.486206,94.918976 
	C271.612244,94.904541 268.248322,95.516808 265.329712,99.060890 
	C264.677429,99.633484 264.025146,100.206085 263.372833,100.778671 
	C263.920166,101.186333 264.467529,101.594002 265.070312,102.745682 
	C265.061432,103.491348 265.052551,104.237007 264.465485,105.456406 
	C262.182037,106.731239 259.898621,108.006065 257.634766,109.269951 
	C258.999847,109.938530 260.407288,110.627884 261.967102,111.391861 
	C258.287903,120.223267 266.492737,123.681679 270.394592,129.496628 
	C267.020264,130.504272 264.510742,131.253662 261.332581,131.710800 
M379.462372,209.455185 
	C379.663788,215.354492 378.953247,221.478745 380.336426,227.086563 
	C381.589264,232.165955 385.586060,235.581299 391.929779,235.100647 
	C398.310852,234.617157 403.789612,231.004578 405.981842,224.455246 
	C408.071716,218.211761 409.943268,211.894989 411.894806,205.605469 
	C412.904999,202.349854 415.678802,198.074219 414.524200,196.016983 
	C411.438660,190.519180 414.716736,186.497711 415.932983,182.023254 
	C417.573608,175.987457 421.648560,173.479553 427.792694,172.906754 
	C434.510345,172.280502 441.240997,171.294464 447.816162,169.804276 
	C452.663757,168.705597 458.963196,159.659988 458.586212,155.034439 
	C458.498596,153.959564 456.886475,153.008942 455.988495,151.148300 
	C455.656403,148.699646 455.295288,146.254532 454.997864,143.801666 
	C454.238586,137.540436 451.386963,135.844986 444.097534,137.985535 
	C439.073761,137.934601 434.049988,137.883667 428.873596,137.166763 
	C424.357574,133.642120 424.591919,133.058640 429.340424,129.458435 
	C430.561157,128.532898 430.740753,125.675278 430.669189,123.732117 
	C430.555420,120.642120 429.086334,117.465599 429.519012,114.520889 
	C430.366364,108.754295 428.389282,104.248138 424.975281,99.252487 
	C425.029388,98.509216 425.083496,97.765953 425.810333,96.867279 
	C425.663300,95.207726 426.048920,93.222038 425.269775,91.949539 
	C422.895813,88.072433 418.590118,88.534149 414.753326,87.593414 
	C410.063904,86.443619 409.018463,88.263741 409.061890,92.610634 
	C409.061890,92.610634 408.926605,92.985748 408.224792,93.116508 
	C406.487976,96.304039 403.586670,99.377274 403.260223,102.703232 
	C402.609070,109.337944 396.797455,115.014015 399.736145,122.209724 
	C399.816925,122.407486 399.518280,122.838768 399.299438,123.068848 
	C394.083008,128.553574 395.595764,136.175095 393.133240,142.545349 
	C391.832489,145.910355 390.509979,149.413132 390.130157,152.953781 
	C389.556824,158.297714 391.575073,163.959686 387.663422,168.854584 
	C387.033051,169.643402 387.231079,171.077667 386.998322,172.203659 
	C386.198761,176.071564 385.303772,179.921234 384.580536,183.803085 
	C383.017334,192.192932 381.538025,200.598404 379.462372,209.455185 
M632.943420,96.338867 
	C632.949280,95.897087 632.955200,95.455315 633.527649,94.535675 
	C635.418335,89.983070 631.963745,88.762634 628.945129,87.555695 
	C627.407593,86.940964 625.306580,84.011894 623.252014,88.020844 
	C622.507446,88.031479 621.762817,88.042114 620.682068,87.571342 
	C620.130432,88.067253 619.578796,88.563156 618.727356,89.542679 
	C618.151550,90.028343 617.575806,90.514015 616.272827,91.080421 
	C615.477356,92.033386 614.365540,92.865181 613.945435,93.961945 
	C612.663452,97.309082 612.013000,100.935371 610.461060,104.134941 
	C605.549438,114.261070 603.746216,125.139275 601.888184,136.066040 
	C601.484009,138.442902 599.677246,140.581284 598.516479,142.829514 
	C597.817871,142.640060 597.119263,142.450607 596.420654,142.261154 
	C602.418945,150.708115 597.337402,159.024765 596.472778,167.255798 
	C595.659424,174.998169 592.934937,182.548965 590.933289,190.152954 
	C590.101868,193.311310 589.008057,196.404037 587.950989,199.498428 
	C587.170654,201.782806 585.615662,203.997650 585.530579,206.285324 
	C585.331238,211.641342 585.655884,217.033722 586.049438,222.390732 
	C586.544189,229.125763 593.426392,235.157379 600.117981,234.996796 
	C606.533264,234.842850 613.966187,227.185196 615.001953,219.770096 
	C615.250305,217.991791 615.916931,216.274063 616.199341,214.497955 
	C617.477661,206.457413 617.216370,197.982697 622.929382,191.217560 
	C623.099304,191.016312 622.934753,190.560455 622.998657,190.237640 
	C626.068909,174.710770 629.085510,159.172867 632.261902,143.667679 
	C633.214844,139.016266 634.694641,134.474976 635.772034,129.845795 
	C636.195679,128.025665 636.078430,126.086609 636.381653,124.230148 
	C637.202515,119.204323 638.972839,114.153183 638.737610,109.189278 
	C638.529419,104.795837 637.914062,99.630295 632.943420,96.338867 
M563.239441,117.492104 
	C561.890137,103.322922 553.296021,94.771660 541.895752,96.118683 
	C538.129395,96.563698 534.324646,96.881752 530.535583,96.901421 
	C513.275208,96.991035 496.013702,97.027252 478.753723,96.912743 
	C474.170990,96.882324 471.035431,98.389282 469.159393,103.142334 
	C469.357239,104.429405 469.555084,105.716476 469.922729,107.655151 
	C469.958374,108.101868 469.994019,108.548592 469.286896,109.081963 
	C467.979462,112.561172 464.621796,117.087334 465.760559,119.317375 
	C468.810211,125.289429 473.722778,130.468277 481.351562,130.951584 
	C488.955627,131.433319 496.575562,131.916779 504.189087,131.925690 
	C511.469147,131.934219 518.753113,131.037292 526.029175,131.115448 
	C530.127747,131.159485 534.213806,132.369354 537.953979,132.995209 
	C538.939514,136.204865 539.984436,139.607971 540.935120,143.714020 
	C535.053345,153.372147 529.427002,163.199722 523.179871,172.615494 
	C520.145935,177.188339 515.950256,180.990402 511.485901,185.110794 
	C510.398254,186.030487 508.340515,187.000595 508.385223,187.861450 
	C508.621582,192.410797 506.410400,196.518402 506.167358,200.792023 
	C505.512573,212.305267 515.899841,219.167404 525.473999,212.866058 
	C532.421814,208.293289 538.317261,201.592270 543.443298,194.892487 
	C553.691162,181.498245 562.155701,166.990601 566.382874,150.378006 
	C567.548035,145.799271 569.153076,141.333786 570.453369,136.786911 
	C570.704651,135.908264 570.663879,134.845810 570.438721,133.948196 
	C569.353271,129.621353 568.322693,125.266495 566.898254,121.047981 
	C566.494507,119.852196 564.828613,119.082611 563.239441,117.492104 
z"/>
<path fill="#85D4F8" opacity="1.000000" stroke="none" 
	d="
M265.043640,104.982674 
	C265.052551,104.237007 265.061432,103.491348 265.289978,102.155884 
	C265.669556,100.709312 265.829437,99.852531 265.989319,98.995743 
	C268.248322,95.516808 271.612244,94.904541 275.486206,94.918976 
	C299.047363,95.006828 322.613678,95.237228 346.168182,94.833755 
	C355.696869,94.670525 362.408325,98.142677 366.997192,107.046524 
	C367.696747,112.522751 368.337036,117.257378 368.716003,122.259079 
	C366.227325,127.991417 363.999969,133.456665 361.579834,138.997055 
	C361.145081,139.232147 360.987183,139.452393 360.604034,139.817856 
	C359.499664,140.558197 358.704590,141.213608 357.553711,141.952789 
	C350.161896,145.843765 342.537689,147.027573 334.664398,147.042480 
	C315.396790,147.078949 296.128967,147.051758 276.861603,147.136215 
	C269.253540,147.169556 265.981689,150.479095 265.811035,158.213898 
	C265.802185,158.699768 265.811890,158.894211 265.740540,159.392715 
	C265.461456,161.120148 265.263519,162.543518 265.035645,164.353806 
	C264.971436,169.505585 268.570312,170.065384 272.441101,170.873383 
	C274.578949,170.909653 276.294220,170.872192 278.009460,170.834747 
	C303.020050,170.911621 328.030609,170.988495 353.722809,171.326691 
	C359.759094,175.474472 360.708405,181.055588 356.674072,187.197113 
	C353.764160,187.875046 351.220367,188.890244 348.671265,188.903793 
	C325.242065,189.028351 301.802704,188.585861 278.385590,189.133209 
	C265.013245,189.445770 255.238068,184.833267 248.951950,172.510925 
	C248.183716,169.306381 246.720993,166.286530 247.182495,163.596832 
	C248.425430,156.352966 250.489212,149.249954 252.227188,142.091034 
	C253.810623,140.376007 255.394073,138.660980 257.393372,136.564362 
	C259.204529,135.439697 260.599854,134.696625 262.383545,133.919174 
	C269.444031,132.933258 276.094849,131.382263 282.792328,131.144409 
	C301.655243,130.474533 320.536835,130.308044 339.412323,130.028397 
	C343.925720,129.961533 347.548431,128.738342 349.569031,124.002274 
	C354.371826,114.242569 352.990662,111.954384 342.744080,111.953430 
	C319.172485,111.951233 295.600922,111.940628 271.771820,111.692085 
	C267.226624,111.426353 266.600433,107.739059 265.043640,104.982674 
z"/>
<path fill="#86D5F8" opacity="1.000000" stroke="none" 
	d="
M484.864197,237.984406 
	C484.924561,237.241226 484.984894,236.498032 485.258911,235.198685 
	C485.568085,234.091141 485.663666,233.539764 485.759216,232.988403 
	C486.104584,232.519882 486.449921,232.051376 487.234100,231.270020 
	C488.788574,230.321884 489.904175,229.686569 491.019806,229.051254 
	C515.082336,229.057388 539.145081,229.122360 563.207275,229.038879 
	C572.040405,229.008255 578.332642,233.021561 582.931763,241.075592 
	C585.953369,248.998993 584.048462,255.971970 581.678955,263.138306 
	C576.524902,273.679810 566.807556,275.320618 557.163879,275.823639 
	C540.763550,276.679169 524.316772,276.648712 507.889099,276.970154 
	C504.067596,277.044952 500.235352,276.879456 496.423920,277.099426 
	C486.529907,277.670624 482.184662,285.053436 485.265625,292.339600 
	C487.540710,293.438873 489.663635,294.861694 491.792603,294.870789 
	C517.866943,294.982178 543.942139,294.886353 570.017151,294.844177 
	C571.287476,294.968048 572.557739,295.091919 574.349731,295.504578 
	C575.859070,296.580261 576.846680,297.367157 577.834290,298.154083 
	C577.834290,298.154083 577.932251,298.090057 577.869629,298.556824 
	C577.058044,303.263489 576.309143,307.503387 575.244690,311.744324 
	C574.282166,311.800293 573.635193,311.855255 572.520264,311.906128 
	C547.451599,311.937134 522.850220,311.873291 498.250671,312.054657 
	C488.025848,312.130035 478.447083,310.848938 470.969910,302.474426 
	C469.957275,301.117676 469.093018,300.024994 468.185547,298.531616 
	C467.485840,295.396057 466.829376,292.661194 466.184265,289.552429 
	C466.450653,287.450928 466.705627,285.723297 466.960571,283.995667 
	C467.000366,283.565155 467.040131,283.134613 467.405792,282.211426 
	C470.541107,276.200165 473.350586,270.681580 476.160065,265.162994 
	C476.160065,265.162994 476.028168,265.051636 476.463196,265.111572 
	C483.387817,261.295166 490.650330,260.521515 498.388184,259.970459 
	C514.412781,259.726562 530.008179,259.508575 545.598938,259.110504 
	C550.990662,258.972870 556.379333,258.479248 561.753784,257.979462 
	C566.492371,257.538818 567.816895,253.763474 567.590454,250.101181 
	C567.333862,245.951508 563.561829,246.015640 560.293091,246.018616 
	C537.192566,246.039658 514.092102,246.031464 490.643494,245.951569 
	C486.416901,244.666183 485.234528,241.604919 484.864197,237.984406 
z"/>
<path fill="#86D5F8" opacity="1.000000" stroke="none" 
	d="
M81.099899,217.049713 
	C95.078255,216.967606 109.056610,216.885498 123.955383,216.831268 
	C138.491165,216.880798 152.106674,216.949280 165.721848,216.910355 
	C178.165482,216.874786 190.608780,216.722977 203.052216,216.622391 
	C211.395599,216.738663 219.738998,216.854935 228.721771,217.198517 
	C229.909180,217.606323 230.457199,217.786789 231.005234,217.967239 
	C231.803970,219.191162 232.602692,220.415070 233.636871,222.267838 
	C233.899857,230.035172 232.652023,232.043152 226.663803,233.938751 
	C225.887436,233.943298 225.443909,233.969894 224.750534,233.973801 
	C224.334305,233.967896 224.167923,233.984695 223.533905,233.964691 
	C213.123062,233.922943 203.178238,233.830139 193.238464,234.012299 
	C191.823700,234.038223 189.449402,235.151703 189.191833,236.180557 
	C187.552979,242.726776 186.383545,249.390488 185.013824,256.261719 
	C184.970612,256.674835 184.973053,256.841766 184.895355,257.365082 
	C184.541321,259.146820 184.267395,260.572205 183.846344,262.283325 
	C183.516617,263.386780 183.334030,264.204468 182.847061,265.294769 
	C181.745667,270.046021 180.948639,274.524658 180.050171,279.358093 
	C179.665817,281.141357 179.382904,282.569824 179.049316,284.248505 
	C179.004135,284.668884 179.009659,284.838989 178.748306,285.286438 
	C177.592575,290.693481 176.703690,295.823151 175.599518,301.148010 
	C175.277039,301.905151 175.169891,302.467163 174.978928,303.378418 
	C173.245071,306.118042 171.595032,308.508423 169.527176,310.907288 
	C167.711197,310.997559 166.313034,311.079315 164.561615,311.068787 
	C157.260986,308.480988 156.296951,306.666534 157.934311,299.450317 
	C158.923141,295.092316 159.867050,290.722870 160.746292,286.341553 
	C163.510574,272.566864 166.234665,258.784149 169.062332,244.621613 
	C169.819977,240.983704 170.489609,237.728760 171.274170,233.915237 
	C163.359085,233.915237 156.559906,233.778015 149.776535,234.043991 
	C148.580490,234.090881 146.732101,235.633392 146.421021,236.811584 
	C145.372116,240.783981 144.880386,244.903473 144.106201,249.316467 
	C143.998047,250.377335 143.959229,251.088470 143.718155,251.939743 
	C143.269760,252.325195 143.152466,252.621460 143.104935,253.353546 
	C143.003021,254.775406 142.960159,255.812393 142.667023,257.083313 
	C142.293823,258.205963 142.170883,259.094727 141.994537,260.322083 
	C141.918564,261.345001 141.896011,262.029297 141.667831,262.874603 
	C141.335968,263.351349 141.209747,263.667084 140.999756,264.368011 
	C139.609955,270.381073 138.263123,275.999847 137.007721,281.638977 
	C135.248871,289.539459 133.830612,297.528076 131.738297,305.337433 
	C130.435028,310.201782 125.379440,312.238922 120.509804,310.648926 
	C116.197350,309.240845 114.484764,305.750793 115.525749,300.756104 
	C116.061485,298.185638 116.405632,295.575226 116.836349,292.982880 
	C116.901794,292.544220 116.967239,292.105560 117.298340,291.075073 
	C118.055244,288.223938 118.600327,285.974792 119.027725,283.703461 
	C120.336205,276.749786 121.512932,269.770264 122.906700,262.834076 
	C124.104919,256.871002 125.530823,250.953674 126.929726,244.688156 
	C127.003975,243.913300 127.004555,243.466400 127.224541,242.851990 
	C127.537621,242.164764 127.631302,241.645065 127.852310,240.751282 
	C128.248535,238.583160 128.517426,236.789078 128.561615,234.655945 
	C122.560181,234.212677 116.783463,234.108475 110.544327,233.966064 
	C106.051613,233.954529 102.021317,233.981186 97.527557,233.974091 
	C93.417168,233.919418 89.756699,234.090744 86.126312,233.834915 
	C79.838562,233.391830 75.827560,228.733719 77.286362,223.277740 
	C77.889229,221.023041 79.789627,219.115280 81.099899,217.049713 
z"/>
<path fill="#86D5F8" opacity="1.000000" stroke="none" 
	d="
M365.092621,243.013382 
	C365.109131,243.447601 365.125610,243.881805 365.128357,245.063538 
	C365.152100,247.549484 365.189575,249.287918 365.154114,251.391235 
	C365.042572,252.498444 365.003967,253.240784 364.703827,254.257645 
	C362.674927,263.357727 360.907562,272.183289 359.081879,281.336304 
	C359.010712,282.106598 358.997894,282.549438 358.718506,283.261902 
	C357.944031,285.770691 357.398193,288.002075 356.935181,290.250549 
	C355.377350,297.815552 349.706726,302.563477 344.911011,307.941650 
	C344.925690,307.980225 344.953827,307.902618 344.636047,307.903778 
	C343.798889,308.237274 343.279510,308.569641 342.460632,308.900146 
	C341.768951,308.970825 341.376801,309.043365 340.611328,309.134949 
	C338.158234,309.771149 336.078522,310.388275 333.614258,310.986755 
	C332.462585,311.022705 331.695496,311.077301 330.468994,311.088257 
	C313.371490,311.084625 296.733398,311.124695 279.689697,311.110962 
	C278.194031,311.031250 277.103943,311.005310 275.756958,310.727386 
	C267.902740,309.092957 262.748108,304.510162 259.078400,297.628082 
	C258.978668,296.868988 258.898315,296.438232 258.820496,295.591461 
	C258.514954,293.072388 257.744659,290.915527 257.982056,288.875946 
	C258.831207,281.580994 260.021942,274.325806 261.063843,267.025116 
	C261.044189,266.994659 261.042816,267.067139 261.242737,266.957153 
	C261.695374,266.636627 261.811005,266.367279 261.878906,265.655334 
	C263.082214,261.228027 264.196136,257.184479 265.310089,253.140961 
	C266.342804,250.892456 267.486603,248.687576 268.389893,246.388229 
	C273.494049,233.395248 283.688049,228.305542 296.909027,228.178604 
	C311.844757,228.035172 326.784576,227.997894 341.718506,228.207352 
	C345.462128,228.259857 349.189972,229.433914 353.451599,230.438751 
	C355.312195,231.533218 356.646240,232.281433 357.980316,233.029648 
	C357.980316,233.029648 358.002167,233.002609 358.133545,233.307251 
	C359.795593,234.827042 361.326263,236.042221 362.856903,237.257401 
	C362.856903,237.257401 362.898346,237.635468 362.980988,238.156204 
	C363.739960,240.122421 364.416290,241.567902 365.092621,243.013382 
M279.020844,269.916016 
	C277.673035,276.554199 276.201172,283.170746 275.036224,289.840881 
	C274.545380,292.651215 276.166138,294.146118 279.082947,294.042358 
	C280.724243,293.983978 282.365723,293.930817 284.937775,293.986023 
	C299.624237,293.961700 314.310730,293.937347 329.743225,294.006897 
	C331.517334,293.388458 333.291443,292.770020 335.686035,292.039764 
	C336.145203,291.412506 336.604370,290.785248 337.517792,289.896973 
	C337.704010,289.607452 337.890228,289.317932 338.561890,288.692810 
	C338.737366,288.140259 338.912811,287.587677 339.630157,286.574188 
	C341.451080,278.377319 343.272003,270.180420 345.242798,261.239563 
	C345.890900,258.509949 346.618408,255.796326 347.170807,253.047485 
	C348.366119,247.099762 347.532288,246.031235 341.376068,245.990677 
	C328.485901,245.905762 315.594971,245.879333 302.704559,245.912659 
	C286.248230,245.955215 285.787140,246.335892 281.194763,262.059784 
	C281.104370,262.369293 281.145111,262.717133 280.922485,263.787994 
	C280.550018,265.537415 280.177551,267.286835 279.754700,269.318420 
	C279.754700,269.318420 279.726990,269.603699 279.020844,269.916016 
z"/>
<path fill="#85D5F8" opacity="1.000000" stroke="none" 
	d="
M119.876999,154.984085 
	C124.900368,137.498520 136.580673,126.407608 154.026550,120.002106 
	C157.117477,119.194626 159.464691,118.296341 161.887375,117.984711 
	C165.279480,117.548378 166.968231,116.013397 167.710449,112.552658 
	C169.193604,105.637024 171.162109,98.825493 172.930176,91.970978 
	C173.525467,91.472885 174.120743,90.974800 175.145660,90.205139 
	C176.047134,89.612846 176.518951,89.292122 176.990768,88.971405 
	C178.709579,88.983330 180.428406,88.995247 182.787155,89.266815 
	C187.208542,91.380867 188.684387,94.488220 188.043671,98.537041 
	C187.449463,102.291992 186.724930,106.033997 185.870789,109.738594 
	C183.954300,118.050812 183.906921,118.040352 192.455826,120.030083 
	C192.615433,120.067230 192.786896,120.053429 192.952835,120.063400 
	C192.952835,120.063400 193.006317,120.029114 193.137695,120.335381 
	C194.479630,121.160316 195.690216,121.678986 196.900787,122.197662 
	C201.795807,126.947960 206.690826,131.698273 211.855927,136.979935 
	C212.379532,137.761490 212.633026,138.011673 212.886536,138.261871 
	C212.886536,138.261871 212.866455,138.640442 212.959442,139.204773 
	C214.071320,145.425888 215.501724,151.045319 216.019562,156.747604 
	C216.964188,167.149582 212.161346,176.037689 207.378082,185.082581 
	C203.922241,188.157059 200.881485,191.253052 197.525925,193.958603 
	C184.296112,204.625671 169.175400,209.288116 152.408554,206.118927 
	C146.069839,204.920807 140.173035,201.384567 134.038010,198.957016 
	C134.001221,198.999893 134.081772,198.920471 134.008560,198.599625 
	C131.964081,196.507889 129.992813,194.736984 127.893097,192.673462 
	C126.851418,191.248657 125.938171,190.116455 124.978317,188.669983 
	C124.340546,187.806778 123.749367,187.257858 123.133865,186.342926 
	C118.038597,176.062485 117.700981,165.654373 119.876999,154.984085 
M198.682449,162.700272 
	C198.791687,162.135025 198.900925,161.569763 199.566025,160.436539 
	C200.800125,149.755127 195.959625,140.248169 186.470215,135.834976 
	C176.123413,131.023041 165.683899,131.795654 155.811264,137.177795 
	C145.079788,143.028152 136.796585,151.055817 135.315109,164.753296 
	C135.540878,166.835739 135.766632,168.918167 135.947403,171.756866 
	C137.968521,175.164597 139.989655,178.572342 142.282257,182.596130 
	C144.519089,184.070801 146.755905,185.545486 149.331833,187.502365 
	C149.890213,187.632156 150.448593,187.761932 151.707855,188.278473 
	C154.129623,188.539978 156.551376,188.801483 159.470276,189.543915 
	C160.988892,189.382660 162.507523,189.221405 164.827042,189.092514 
	C166.886093,188.744553 168.945129,188.396606 171.732315,188.063324 
	C172.822510,187.711121 173.912704,187.358932 175.720123,186.943924 
	C182.091721,183.865952 188.616058,180.983887 192.694153,173.828430 
	C194.555695,170.259186 196.417252,166.689941 198.682449,162.700272 
z"/>
<path fill="#86D5F8" opacity="1.000000" stroke="none" 
	d="
M469.801880,102.997093 
	C471.035431,98.389282 474.170990,96.882324 478.753723,96.912743 
	C496.013702,97.027252 513.275208,96.991035 530.535583,96.901421 
	C534.324646,96.881752 538.129395,96.563698 541.895752,96.118683 
	C553.296021,94.771660 561.890137,103.322922 563.523865,118.209061 
	C563.446289,122.719101 563.440308,126.586624 562.665283,130.293365 
	C556.991028,157.433533 542.328613,179.393845 522.939514,198.582657 
	C520.489441,201.007416 517.946777,201.320877 514.858459,199.535156 
	C509.381348,196.368088 508.525726,192.120346 512.280457,185.141388 
	C515.950256,180.990402 520.145935,177.188339 523.179871,172.615494 
	C529.427002,163.199722 535.053345,153.372147 541.257996,143.118668 
	C542.766602,138.336548 543.952393,134.149780 545.214111,129.594040 
	C545.843323,125.836205 546.776917,122.445984 546.764893,119.059105 
	C546.760010,117.682205 544.903137,115.428413 543.533936,115.112679 
	C540.034180,114.305603 536.336304,114.135582 532.715210,114.113411 
	C514.144287,113.999733 495.572632,114.013138 476.633606,113.963844 
	C474.187225,112.295479 472.108429,110.645401 470.029663,108.995316 
	C469.994019,108.548592 469.958374,108.101868 469.910278,106.932739 
	C469.865845,105.139252 469.833862,104.068169 469.801880,102.997093 
z"/>
<path fill="#86D5F8" opacity="1.000000" stroke="none" 
	d="
M429.026215,137.832733 
	C434.049988,137.883667 439.073761,137.934601 444.794006,138.223679 
	C451.416229,139.915604 453.327698,142.136063 452.901672,147.071060 
	C452.434357,152.484344 449.659882,154.899139 443.462219,154.968384 
	C435.328400,155.059311 427.192841,154.991699 419.058044,155.002457 
	C412.322571,155.011368 412.288147,155.051819 411.813416,162.292068 
	C411.494110,163.406540 411.312012,164.229385 411.069092,165.374329 
	C411.006561,166.133423 411.004791,166.570404 410.956116,167.303955 
	C410.894745,167.998627 410.880310,168.396698 410.604523,169.078003 
	C407.282928,183.251541 404.222717,197.141830 401.109070,211.267136 
	C401.055634,211.502151 401.093262,211.982697 401.042419,212.311386 
	C400.970459,213.082748 400.949402,213.525406 400.681458,214.182877 
	C400.255157,215.239899 400.075714,216.082123 399.937988,216.962326 
	C399.979736,217.000305 399.922119,216.903320 399.571594,216.973145 
	C396.481781,218.129868 393.742462,219.216766 390.665771,220.234268 
	C389.870056,220.155151 389.411682,220.145416 388.677673,219.941559 
	C386.626221,217.820587 384.850403,215.893753 383.090576,213.643585 
	C383.092621,212.889038 383.078613,212.457794 383.306763,211.743286 
	C384.680725,206.455841 385.866882,201.463242 386.935516,196.445602 
	C394.279633,161.961914 401.599152,127.472992 408.926605,92.985748 
	C408.926605,92.985748 409.061890,92.610634 409.455444,92.304916 
	C416.868866,87.772102 422.466827,89.611458 425.137634,97.022682 
	C425.083496,97.765953 425.029388,98.509216 424.720612,99.899277 
	C421.817993,112.787521 419.170074,125.028984 416.400513,137.832733 
	C421.512543,137.832733 425.269379,137.832733 429.026215,137.832733 
z"/>
<path fill="#F4F8F9" opacity="1.000000" stroke="none" 
	d="
M143.920425,251.799591 
	C143.959229,251.088470 143.998047,250.377335 144.423080,249.163177 
	C152.299332,243.706787 160.832092,245.646484 168.974319,245.004562 
	C166.234665,258.784149 163.510574,272.566864 160.746292,286.341553 
	C159.867050,290.722870 158.923141,295.092316 157.934311,299.450317 
	C156.296951,306.666534 157.260986,308.480988 164.294922,311.317322 
	C161.320175,311.360077 158.258850,311.062042 155.197540,310.764008 
	C155.049622,311.304474 154.901703,311.844971 154.753784,312.385437 
	C160.299164,314.872467 165.844559,317.359467 172.126526,320.176849 
	C174.382416,314.795593 176.580429,309.729950 178.623962,304.602722 
	C179.645355,302.040039 178.460770,300.855530 175.814819,300.952850 
	C176.703690,295.823151 177.592575,290.693481 179.003845,285.488922 
	C179.978516,286.152771 180.430771,286.891479 180.883026,287.630188 
	C181.322968,287.275604 181.762894,286.920990 182.202820,286.566406 
	C181.168549,285.710358 180.134262,284.854309 179.099991,283.998260 
	C179.382904,282.569824 179.665817,281.141357 180.458939,279.356842 
	C182.291763,278.387817 184.535446,278.020691 184.776123,277.118958 
	C185.770569,273.393250 186.158295,269.505585 186.816574,265.378845 
	C185.368240,265.237885 184.259842,265.130005 183.151428,265.022125 
	C183.334030,264.204468 183.516617,263.386780 184.200348,262.318909 
	C185.791214,261.883392 187.609009,262.013702 187.848938,261.460114 
	C189.123459,258.519318 190.237900,255.460251 190.943542,252.337250 
	C191.510010,249.830231 192.110947,248.099823 195.175018,247.901443 
	C202.555588,247.423553 209.929291,246.761765 217.280411,245.945663 
	C220.186188,245.623077 223.395859,245.316010 225.798813,243.881973 
	C228.733109,242.130798 232.584854,240.202072 231.829391,236.257965 
	C229.673370,235.233139 228.335007,234.596970 226.996628,233.960800 
	C232.652023,232.043152 233.899857,230.035172 233.870819,222.475372 
	C235.232483,225.429855 237.674042,228.776306 237.766769,232.186630 
	C238.115143,244.997437 231.654236,249.949768 220.646652,250.057404 
	C215.191055,250.110748 209.742798,250.718658 204.286850,250.986649 
	C199.095261,251.241669 195.203308,253.353455 194.009674,258.670258 
	C192.786774,264.117554 192.170563,269.701263 190.942123,275.147064 
	C189.823105,280.107880 188.160614,284.943390 186.878281,289.870728 
	C184.844757,297.684387 182.972504,305.540009 180.950470,313.356781 
	C178.768097,321.793243 173.661346,326.033234 165.900879,325.997437 
	C158.696671,325.964203 153.457748,321.434692 153.063492,314.248230 
	C152.815613,309.730042 154.055847,305.084076 153.490311,300.640259 
	C152.621216,293.811218 156.556229,288.190979 157.177261,281.753510 
	C157.840576,274.877960 159.549576,268.105194 160.742752,261.277191 
	C160.969894,259.977325 161.308701,258.492279 160.901810,257.337219 
	C160.372345,255.834198 159.359909,253.734375 158.168564,253.436081 
	C156.841461,253.103806 154.322998,254.071503 153.653732,255.237244 
	C151.854797,258.370605 150.496704,261.830933 149.456894,265.308899 
	C147.896576,270.527771 146.519791,275.828766 145.535278,281.181366 
	C145.016464,284.001984 146.244064,287.248444 145.391220,289.884705 
	C141.980560,300.427673 138.557343,311.020172 134.169464,321.175537 
	C130.958466,328.607178 117.118874,327.231537 112.243645,319.427460 
	C107.661255,312.092194 109.623978,298.923126 116.503204,293.032715 
	C116.405632,295.575226 116.061485,298.185638 115.525749,300.756104 
	C114.484764,305.750793 116.197350,309.240845 120.509804,310.648926 
	C125.379440,312.238922 130.435028,310.201782 131.738297,305.337433 
	C133.830612,297.528076 135.248871,289.539459 137.007721,281.638977 
	C138.263123,275.999847 139.609955,270.381073 141.218430,264.221985 
	C141.638397,263.364990 141.755920,263.039276 141.873444,262.713562 
	C141.896011,262.029297 141.918564,261.345001 142.254837,260.102295 
	C142.684799,258.645721 142.801056,257.747528 142.917297,256.849365 
	C142.960159,255.812393 143.003021,254.775406 143.303696,253.215591 
	C143.799469,252.442673 143.919113,252.144958 143.920425,251.799591 
z"/>
<path fill="#86D5F8" opacity="1.000000" stroke="none" 
	d="
M621.018250,88.052750 
	C621.762817,88.042114 622.507446,88.031479 623.996460,88.039948 
	C629.227783,88.312424 631.506409,91.176056 632.961121,95.013535 
	C632.955200,95.455315 632.949280,95.897087 632.898560,97.051003 
	C628.261353,118.159218 623.632324,138.547119 619.087830,158.953857 
	C615.122131,176.761475 611.351379,194.613129 607.281494,212.396576 
	C605.978577,218.089523 602.624390,219.958725 597.470642,218.703033 
	C592.139709,217.404175 590.395081,214.333481 591.589905,208.643478 
	C595.781677,188.680649 599.826355,168.686310 604.129272,148.747620 
	C608.289368,129.470215 612.699585,110.246811 617.000000,90.999687 
	C617.575806,90.514015 618.151550,90.028343 619.171265,89.274643 
	C620.082886,88.688660 620.550598,88.370705 621.018250,88.052750 
z"/>
<path fill="#F2F8FA" opacity="1.000000" stroke="none" 
	d="
M616.636353,91.040054 
	C612.699585,110.246811 608.289368,129.470215 604.129272,148.747620 
	C599.826355,168.686310 595.781677,188.680649 591.589905,208.643478 
	C590.395081,214.333481 592.139709,217.404175 597.470642,218.703033 
	C602.624390,219.958725 605.978577,218.089523 607.281494,212.396576 
	C611.351379,194.613129 615.122131,176.761475 619.087830,158.953857 
	C623.632324,138.547119 628.261353,118.159218 632.933472,97.380753 
	C637.914062,99.630295 638.529419,104.795837 638.737610,109.189278 
	C638.972839,114.153183 637.202515,119.204323 636.381653,124.230148 
	C636.078430,126.086609 636.195679,128.025665 635.772034,129.845795 
	C634.694641,134.474976 633.214844,139.016266 632.261902,143.667679 
	C629.085510,159.172867 626.068909,174.710770 622.998657,190.237640 
	C622.934753,190.560455 623.099304,191.016312 622.929382,191.217560 
	C617.216370,197.982697 617.477661,206.457413 616.199341,214.497955 
	C615.916931,216.274063 615.250305,217.991791 615.001953,219.770096 
	C613.966187,227.185196 606.533264,234.842850 600.117981,234.996796 
	C593.426392,235.157379 586.544189,229.125763 586.049438,222.390732 
	C585.655884,217.033722 585.331238,211.641342 585.530579,206.285324 
	C585.615662,203.997650 587.170654,201.782806 587.950989,199.498428 
	C589.008057,196.404037 590.101868,193.311310 590.933289,190.152954 
	C592.934937,182.548965 595.659424,174.998169 596.472778,167.255798 
	C597.337402,159.024765 602.418945,150.708115 596.420654,142.261154 
	C597.119263,142.450607 597.817871,142.640060 598.516479,142.829514 
	C599.677246,140.581284 601.484009,138.442902 601.888184,136.066040 
	C603.746216,125.139275 605.549438,114.261070 610.461060,104.134941 
	C612.013000,100.935371 612.663452,97.309082 613.945435,93.961945 
	C614.365540,92.865181 615.477356,92.033386 616.636353,91.040054 
z"/>
<path fill="#F2F6F8" opacity="1.000000" stroke="none" 
	d="
M207.648529,184.924667 
	C212.161346,176.037689 216.964188,167.149582 216.019562,156.747604 
	C215.501724,151.045319 214.071320,145.425888 213.011154,139.387131 
	C213.962463,139.617493 215.247437,140.015381 215.886551,140.886902 
	C217.206207,142.686523 218.181580,144.738617 219.522232,147.076950 
	C220.089966,150.842773 220.300980,155.504074 221.558899,159.863266 
	C223.741882,167.428085 221.724594,174.446594 219.207260,181.243439 
	C216.452698,188.680817 212.808716,195.794586 209.404190,202.979187 
	C208.892715,204.058563 207.640137,204.843384 206.616257,205.612534 
	C203.667969,207.827225 200.661255,209.964172 197.537430,212.233398 
	C200.067657,213.952271 201.526703,214.943466 203.018982,216.278519 
	C190.608780,216.722977 178.165482,216.874786 165.721848,216.910355 
	C152.106674,216.949280 138.491165,216.880798 124.412308,216.744446 
	C125.280418,215.351959 126.612030,214.074173 128.498871,212.263580 
	C127.459785,210.907486 125.937927,208.842804 124.334343,206.843658 
	C120.038635,201.488312 114.853584,196.556549 115.950218,188.711990 
	C111.261208,184.738373 114.832100,179.590103 114.259506,175.055023 
	C113.376564,168.062042 114.875534,161.114548 119.530563,155.058914 
	C117.700981,165.654373 118.038597,176.062485 123.112083,186.698517 
	C123.751396,187.941498 124.388161,188.462891 125.024925,188.984268 
	C125.938171,190.116455 126.851418,191.248657 127.884644,193.103027 
	C128.193329,196.116745 128.382034,198.408264 128.611725,201.197708 
	C131.130966,200.148926 132.606369,199.534698 134.081772,198.920471 
	C134.081772,198.920471 134.001221,198.999893 134.013336,199.377548 
	C134.155991,208.161789 143.870270,215.414520 152.587662,213.688126 
	C154.346085,213.339874 156.278946,212.862030 157.950378,213.241409 
	C174.523132,217.003143 187.835449,209.940659 200.045959,200.196442 
	C204.147049,196.923691 207.228714,192.227936 210.278793,187.836990 
	C212.182266,185.096710 209.422653,185.125443 207.648529,184.924667 
z"/>
<path fill="#F2F6F8" opacity="1.000000" stroke="none" 
	d="
M511.883179,185.126099 
	C508.525726,192.120346 509.381348,196.368088 514.858459,199.535156 
	C517.946777,201.320877 520.489441,201.007416 522.939514,198.582657 
	C542.328613,179.393845 556.991028,157.433533 562.665283,130.293365 
	C563.440308,126.586624 563.446289,122.719101 563.774902,118.521790 
	C564.828613,119.082611 566.494507,119.852196 566.898254,121.047981 
	C568.322693,125.266495 569.353271,129.621353 570.438721,133.948196 
	C570.663879,134.845810 570.704651,135.908264 570.453369,136.786911 
	C569.153076,141.333786 567.548035,145.799271 566.382874,150.378006 
	C562.155701,166.990601 553.691162,181.498245 543.443298,194.892487 
	C538.317261,201.592270 532.421814,208.293289 525.473999,212.866058 
	C515.899841,219.167404 505.512573,212.305267 506.167358,200.792023 
	C506.410400,196.518402 508.621582,192.410797 508.385223,187.861450 
	C508.340515,187.000595 510.398254,186.030487 511.883179,185.126099 
z"/>
<path fill="#FAFBFB" opacity="1.000000" stroke="none" 
	d="
M251.855728,142.102203 
	C250.489212,149.249954 248.425430,156.352966 247.182495,163.596832 
	C246.720993,166.286530 248.183716,169.306381 248.735596,172.792969 
	C247.514908,174.092896 246.327576,174.775528 245.406631,175.304993 
	C246.450180,177.656662 247.093109,179.504913 248.046417,181.176147 
	C250.541367,185.549973 252.259247,191.000092 255.949554,193.919434 
	C262.450714,199.062332 270.388519,202.014282 279.047302,202.004883 
	C298.705902,201.983536 318.366089,202.127701 338.022064,201.898590 
	C342.424408,201.847260 346.945007,200.979477 351.173584,199.701416 
	C356.730743,198.021790 359.330475,191.785980 357.037750,187.069778 
	C360.708405,181.055588 359.759094,175.474472 354.189941,171.320709 
	C355.835754,171.403214 358.284882,171.119217 359.457733,172.208923 
	C365.624329,177.938339 367.222046,194.111664 361.937653,200.683212 
	C359.910614,203.204010 356.277283,205.310074 353.073090,205.868958 
	C326.698425,210.469238 300.066010,207.517731 273.555817,207.705505 
	C261.817993,207.788651 252.281830,201.670486 244.998886,191.572495 
	C239.677368,184.194077 239.478378,176.455185 240.308716,168.552689 
	C240.869614,163.214645 243.645981,158.109100 245.435837,152.901123 
	C245.542725,152.590134 245.882645,152.204514 245.789948,152.002167 
	C243.047928,146.017624 248.337860,144.683777 251.855728,142.102203 
z"/>
<path fill="#F4F8F9" opacity="1.000000" stroke="none" 
	d="
M401.162476,211.032120 
	C404.222717,197.141830 407.282928,183.251541 410.848816,169.389008 
	C412.498291,169.236038 414.589355,169.195114 414.639893,168.852982 
	C415.160614,165.325317 417.752228,166.114944 419.968536,165.990265 
	C425.559113,165.675705 431.159698,165.453430 436.732880,164.939941 
	C442.338715,164.423416 447.092346,162.566269 448.376526,156.000229 
	C451.161469,154.666550 453.568665,153.333862 455.975830,152.001160 
	C456.886475,153.008942 458.498596,153.959564 458.586212,155.034439 
	C458.963196,159.659988 452.663757,168.705597 447.816162,169.804276 
	C441.240997,171.294464 434.510345,172.280502 427.792694,172.906754 
	C421.648560,173.479553 417.573608,175.987457 415.932983,182.023254 
	C414.716736,186.497711 411.438660,190.519180 414.524200,196.016983 
	C415.678802,198.074219 412.904999,202.349854 411.894806,205.605469 
	C409.943268,211.894989 408.071716,218.211761 405.981842,224.455246 
	C403.789612,231.004578 398.310852,234.617157 391.929779,235.100647 
	C385.586060,235.581299 381.589264,232.165955 380.336426,227.086563 
	C378.953247,221.478745 379.663788,215.354492 380.071198,209.273514 
	C381.474884,210.070084 382.269745,211.048325 383.064606,212.026550 
	C383.078613,212.457794 383.092621,212.889038 382.812195,213.856140 
	C382.688690,219.479095 384.360840,220.971481 388.953308,220.135696 
	C389.411682,220.145416 389.870056,220.155151 390.755249,220.556290 
	C395.595032,222.512665 398.160461,221.325531 399.922119,216.903320 
	C399.922119,216.903320 399.979736,217.000305 400.277100,216.947052 
	C400.692383,215.918579 400.810364,214.943329 400.928345,213.968079 
	C400.949402,213.525406 400.970459,213.082748 401.190582,212.229401 
	C401.449097,211.723755 401.581482,211.587799 401.555176,211.541046 
	C401.451294,211.356216 401.297668,211.199356 401.162476,211.032120 
z"/>
<path fill="#F7F9FA" opacity="1.000000" stroke="none" 
	d="
M358.985077,282.992310 
	C358.997894,282.549438 359.010712,282.106598 359.419189,281.265320 
	C360.935974,279.213287 362.057129,277.559662 363.474335,275.469421 
	C364.576599,277.191772 365.329224,278.367737 366.081848,279.543732 
	C366.782776,277.526489 367.199158,275.089264 366.233002,274.257141 
	C363.525085,271.924896 364.578888,269.574158 364.679077,266.766632 
	C364.830414,262.524719 368.748077,258.275024 364.965393,253.983109 
	C365.003967,253.240784 365.042572,252.498444 365.526031,251.383286 
	C366.976532,251.003510 367.982178,250.996567 368.987793,250.989624 
	C373.252899,257.300568 370.425171,264.035797 369.530182,270.351929 
	C367.960968,281.426331 366.123535,292.628723 362.694672,303.226227 
	C359.367737,313.508575 353.623383,322.077942 341.762848,325.954468 
	C330.746368,329.555206 319.866821,328.682953 308.857483,328.964325 
	C301.704620,329.147156 294.504150,328.524719 287.395111,329.111816 
	C277.189240,329.954712 267.974060,326.663666 260.579498,320.758728 
	C256.010071,317.109802 252.732819,310.188660 251.665085,304.236145 
	C250.389999,297.127625 251.965866,289.472961 252.624405,282.083221 
	C252.748291,280.693176 254.362717,279.436005 255.647110,278.528076 
	C256.004547,282.556213 255.675568,286.215363 256.126312,289.775818 
	C256.399323,291.932068 257.879913,293.935425 258.817963,296.007477 
	C258.898315,296.438232 258.978668,296.868988 258.789490,297.853851 
	C258.682281,300.268402 258.844635,302.128815 258.860718,304.325073 
	C258.766418,306.214203 258.219910,308.186523 258.966766,309.253326 
	C264.077057,316.552765 270.761536,322.078033 279.870209,322.868439 
	C290.107605,323.756805 300.435944,324.044464 310.713715,323.885193 
	C319.629883,323.747040 328.616699,323.156616 337.409393,321.748657 
	C343.693054,320.742432 348.477051,316.415161 352.137268,310.677246 
	C353.514771,307.570496 354.751282,304.781647 356.063416,301.626282 
	C360.073364,299.740692 360.786835,297.083954 359.326111,293.275787 
	C358.854828,292.047119 359.527832,290.418304 359.479523,288.979187 
	C359.412415,286.980286 359.158844,284.987640 358.985077,282.992310 
z"/>
<path fill="#F4F8F9" opacity="1.000000" stroke="none" 
	d="
M264.754578,105.219543 
	C266.600433,107.739059 267.226624,111.426353 271.761292,112.103485 
	C271.435059,116.581459 273.366028,118.998466 276.817535,119.722206 
	C280.823242,120.562149 284.964111,121.039589 289.057953,121.126808 
	C303.857635,121.442146 318.668182,121.337196 333.461731,121.801842 
	C338.729950,121.967323 343.961426,123.304199 349.209656,124.106354 
	C347.548431,128.738342 343.925720,129.961533 339.412323,130.028397 
	C320.536835,130.308044 301.655243,130.474533 282.792328,131.144409 
	C276.094849,131.382263 269.444031,132.933258 262.384521,133.594482 
	C261.998505,132.870468 261.999878,132.436752 262.001221,132.003052 
	C264.510742,131.253662 267.020264,130.504272 270.394592,129.496628 
	C266.492737,123.681679 258.287903,120.223267 261.967102,111.391861 
	C260.407288,110.627884 258.999847,109.938530 257.634766,109.269951 
	C259.898621,108.006065 262.182037,106.731239 264.754578,105.219543 
z"/>
<path fill="#F6FAFC" opacity="1.000000" stroke="none" 
	d="
M570.019104,294.487793 
	C543.942139,294.886353 517.866943,294.982178 491.792603,294.870789 
	C489.663635,294.861694 487.540710,293.438873 485.615173,292.342896 
	C487.744904,291.880219 489.682312,291.817352 491.602631,291.602203 
	C498.215637,290.861206 504.823151,289.421814 511.431946,289.426239 
	C525.565613,289.435730 539.779541,292.187317 553.690857,287.316589 
	C555.645020,286.632416 558.009460,286.198486 559.966492,286.631683 
	C564.369812,287.606354 567.816162,286.392822 571.592102,284.105469 
	C577.448792,280.557648 580.561523,275.298065 583.540466,269.480316 
	C585.204956,266.229736 585.302979,264.447418 581.943970,262.934235 
	C584.048462,255.971970 585.953369,248.998993 583.090881,241.378510 
	C587.071899,240.086700 589.387878,239.687866 588.395203,245.715149 
	C587.662781,250.162399 589.914429,255.151291 591.054199,259.845978 
	C593.278625,269.008148 588.834534,275.885223 583.212280,282.121796 
	C580.499634,285.130859 576.802063,287.233765 573.689819,289.909088 
	C572.290833,291.111694 571.233459,292.711700 570.019104,294.487793 
z"/>
<path fill="#FAFBFB" opacity="1.000000" stroke="none" 
	d="
M278.020813,170.457031 
	C276.294220,170.872192 274.578949,170.909653 272.445312,170.501068 
	C272.467590,165.122925 274.736053,162.108810 280.086182,161.982727 
	C291.695404,161.709167 303.308624,161.476242 314.908142,160.956863 
	C325.553925,160.480194 336.306549,160.436783 346.793701,158.801682 
	C365.386566,155.902740 373.322510,140.019257 368.977325,121.992004 
	C368.337036,117.257378 367.696747,112.522751 367.065765,107.391617 
	C370.048279,112.593315 374.226898,117.886284 375.738220,123.854668 
	C378.683746,135.486801 373.302216,145.470306 366.553772,154.564941 
	C365.156799,156.447601 362.739441,157.647430 360.641907,158.912537 
	C358.950195,159.932831 356.645355,160.167908 355.279419,161.457657 
	C348.678162,167.690842 340.286407,166.608261 332.494415,166.853729 
	C316.866577,167.346008 301.209900,166.863495 285.571381,167.137970 
	C283.041901,167.182358 280.544464,169.052887 278.020813,170.457031 
z"/>
<path fill="#F7F9FA" opacity="1.000000" stroke="none" 
	d="
M545.138184,129.963013 
	C543.952393,134.149780 542.766602,138.336548 541.305176,142.767197 
	C539.984436,139.607971 538.939514,136.204865 537.953979,132.995209 
	C534.213806,132.369354 530.127747,131.159485 526.029175,131.115448 
	C518.753113,131.037292 511.469147,131.934219 504.189087,131.925690 
	C496.575562,131.916779 488.955627,131.433319 481.351562,130.951584 
	C473.722778,130.468277 468.810211,125.289429 465.760559,119.317375 
	C464.621796,117.087334 467.979462,112.561172 469.658264,109.038643 
	C472.108429,110.645401 474.187225,112.295479 476.582947,114.304901 
	C475.922180,116.122849 474.944519,117.581459 473.030426,120.437119 
	C477.818054,121.787331 481.679626,123.259132 485.674408,123.898079 
	C489.886780,124.571823 494.225159,124.613655 498.510498,124.643654 
	C508.273407,124.712013 518.077148,125.110085 527.784119,124.350533 
	C532.504822,123.981155 536.104980,124.650742 539.683594,127.542839 
	C541.177856,128.750443 543.300964,129.179810 545.138184,129.963013 
z"/>
<path fill="#F4F8F9" opacity="1.000000" stroke="none" 
	d="
M126.856049,245.016113 
	C125.530823,250.953674 124.104919,256.871002 122.906700,262.834076 
	C121.512932,269.770264 120.336205,276.749786 119.027725,283.703461 
	C118.600327,285.974792 118.055244,288.223938 117.292595,290.742065 
	C116.466896,287.463257 115.139397,283.835968 115.537033,280.408844 
	C116.154335,275.088348 117.952248,269.905609 119.239357,264.661957 
	C121.633514,254.908188 118.572632,251.154327 108.552994,250.948898 
	C100.955048,250.793106 93.221596,250.965714 85.809555,249.587723 
	C76.209282,247.802933 74.132072,243.270767 72.709923,233.601013 
	C71.789749,227.344406 75.456833,223.473648 77.146164,218.576904 
	C77.418449,217.787659 79.210243,217.522644 80.699768,217.032501 
	C79.789627,219.115280 77.889229,221.023041 77.286362,223.277740 
	C75.827560,228.733719 79.838562,233.391830 86.126312,233.834915 
	C89.756699,234.090744 93.417168,233.919418 97.234665,234.269501 
	C93.614899,234.732956 89.809975,234.716522 86.041954,235.081253 
	C84.678085,235.213287 82.272629,236.307693 82.297791,236.876480 
	C82.374321,238.606659 82.940086,241.191116 84.156006,241.821518 
	C87.133537,243.365250 90.540756,244.650833 93.850830,244.863998 
	C100.783348,245.310532 107.764801,244.977219 114.725815,245.019333 
	C116.029724,245.027222 117.877686,244.794968 118.542191,245.523727 
	C121.685120,248.970459 124.261337,247.987503 126.856049,245.016113 
z"/>
<path fill="#FAFBFB" opacity="1.000000" stroke="none" 
	d="
M466.172882,289.926300 
	C466.829376,292.661194 467.485840,295.396057 467.814789,298.593475 
	C464.746979,300.687500 464.296265,302.611603 466.537262,305.094818 
	C467.409485,306.061340 468.251587,307.223145 468.626831,308.443756 
	C471.987244,319.374786 480.927277,323.454132 490.737488,323.749512 
	C515.192871,324.485840 539.685913,324.093994 564.162354,323.934967 
	C571.725403,323.885834 576.888306,319.603210 577.390808,312.001556 
	C579.145020,312.846497 580.508484,313.691101 581.871887,314.535706 
	C579.299072,318.156403 577.382263,322.706940 573.958984,325.122009 
	C570.875000,327.297638 566.150513,327.822144 562.131714,327.882477 
	C544.033813,328.153992 525.925171,327.759949 507.829041,328.084137 
	C495.295135,328.308655 483.000885,328.157349 472.001221,321.000763 
	C470.035492,319.227661 468.069763,317.454590 466.052002,314.954102 
	C466.014862,312.354279 466.835541,309.704742 465.907074,308.742035 
	C461.559509,304.234009 463.185913,298.841187 463.202606,293.765625 
	C463.206818,292.482605 465.130981,291.205902 466.172882,289.926300 
z"/>
<path fill="#EBF8FC" opacity="1.000000" stroke="none" 
	d="
M383.306763,211.743286 
	C382.269745,211.048325 381.474884,210.070084 380.352234,209.044678 
	C381.538025,200.598404 383.017334,192.192932 384.580536,183.803085 
	C385.303772,179.921234 386.198761,176.071564 386.998322,172.203659 
	C387.231079,171.077667 387.033051,169.643402 387.663422,168.854584 
	C391.575073,163.959686 389.556824,158.297714 390.130157,152.953781 
	C390.509979,149.413132 391.832489,145.910355 393.133240,142.545349 
	C395.595764,136.175095 394.083008,128.553574 399.299438,123.068848 
	C399.518280,122.838768 399.816925,122.407486 399.736145,122.209724 
	C396.797455,115.014015 402.609070,109.337944 403.260223,102.703232 
	C403.586670,99.377274 406.487976,96.304039 408.575684,93.051132 
	C401.599152,127.472992 394.279633,161.961914 386.935516,196.445602 
	C385.866882,201.463242 384.680725,206.455841 383.306763,211.743286 
z"/>
<path fill="#F6FAFC" opacity="1.000000" stroke="none" 
	d="
M472.038971,321.351562 
	C483.000885,328.157349 495.295135,328.308655 507.829041,328.084137 
	C525.925171,327.759949 544.033813,328.153992 562.131714,327.882477 
	C566.150513,327.822144 570.875000,327.297638 573.958984,325.122009 
	C577.382263,322.706940 579.299072,318.156403 581.871887,314.535706 
	C580.508484,313.691101 579.145020,312.846497 577.026978,311.958649 
	C576.035034,311.858032 575.797607,311.800659 575.560303,311.743286 
	C576.309143,307.503387 577.058044,303.263489 577.816833,298.594116 
	C578.539368,298.473389 579.517517,298.582153 579.923767,299.121613 
	C584.337952,304.982880 584.677002,320.000092 579.311951,324.503784 
	C575.660645,327.568878 570.037659,329.662903 565.246460,329.761322 
	C540.435791,330.270905 515.608826,330.054871 490.787994,329.963318 
	C483.436401,329.936188 476.990173,327.453003 472.038971,321.351562 
z"/>
<path fill="#EBF8FC" opacity="1.000000" stroke="none" 
	d="
M428.949890,137.499756 
	C425.269379,137.832733 421.512543,137.832733 416.400513,137.832733 
	C419.170074,125.028984 421.817993,112.787521 424.731445,100.272102 
	C428.389282,104.248138 430.366364,108.754295 429.519012,114.520889 
	C429.086334,117.465599 430.555420,120.642120 430.669189,123.732117 
	C430.740753,125.675278 430.561157,128.532898 429.340424,129.458435 
	C424.591919,133.058640 424.357574,133.642120 428.949890,137.499756 
z"/>
<path fill="#F6FAFC" opacity="1.000000" stroke="none" 
	d="
M497.957153,259.925720 
	C490.650330,260.521515 483.387817,261.295166 476.531189,265.171082 
	C476.747314,264.299713 477.132416,263.065125 477.947968,262.621094 
	C481.381500,260.751648 481.873932,258.068085 481.409698,254.405396 
	C480.855865,250.035660 480.911011,245.551590 481.161987,241.143219 
	C481.224274,240.048889 483.058014,239.055420 484.470856,238.000000 
	C485.234528,241.604919 486.416901,244.666183 490.633606,246.336624 
	C489.469421,247.919617 487.967072,249.036545 485.987305,250.508438 
	C488.275665,255.532761 493.374176,257.428162 497.957153,259.925720 
z"/>
<path fill="#EBF8FC" opacity="1.000000" stroke="none" 
	d="
M192.969986,119.593842 
	C192.786896,120.053429 192.615433,120.067230 192.455826,120.030083 
	C183.906921,118.040352 183.954300,118.050812 185.870789,109.738594 
	C186.724930,106.033997 187.449463,102.291992 188.043671,98.537041 
	C188.684387,94.488220 187.208542,91.380867 183.216568,89.252907 
	C187.175507,88.694321 190.618088,92.475220 190.685181,96.720955 
	C190.733704,99.791473 191.739853,102.834129 192.049957,105.916275 
	C192.491608,110.305939 192.686722,114.720413 192.969986,119.593842 
z"/>
<path fill="#EBF8FC" opacity="1.000000" stroke="none" 
	d="
M455.982178,151.574738 
	C453.568665,153.333862 451.161469,154.666550 447.908020,155.999969 
	C439.493713,155.999985 431.908569,156.310226 424.363281,155.895233 
	C418.828522,155.590836 414.355377,156.421738 411.950562,162.000427 
	C412.288147,155.051819 412.322571,155.011368 419.058044,155.002457 
	C427.192841,154.991699 435.328400,155.059311 443.462219,154.968384 
	C449.659882,154.899139 452.434357,152.484344 452.901672,147.071060 
	C453.327698,142.136063 451.416229,139.915604 445.261475,138.185410 
	C451.386963,135.844986 454.238586,137.540436 454.997864,143.801666 
	C455.295288,146.254532 455.656403,148.699646 455.982178,151.574738 
z"/>
<path fill="#EBF8FC" opacity="1.000000" stroke="none" 
	d="
M172.564789,92.023758 
	C171.162109,98.825493 169.193604,105.637024 167.710449,112.552658 
	C166.968231,116.013397 165.279480,117.548378 161.887375,117.984711 
	C159.464691,118.296341 157.117477,119.194626 154.353287,119.827148 
	C156.391144,117.873619 160.083572,116.382408 160.984100,113.884636 
	C163.264725,107.558746 170.258301,103.394653 169.233261,95.547829 
	C169.101227,94.537132 171.157074,93.240639 172.564789,92.023758 
z"/>
<path fill="#F6FAFC" opacity="1.000000" stroke="none" 
	d="
M466.184265,289.552429 
	C465.130981,291.205902 463.206818,292.482605 463.202606,293.765625 
	C463.185913,298.841187 461.559509,304.234009 465.907074,308.742035 
	C466.835541,309.704742 466.014862,312.354279 465.999451,314.612732 
	C464.496185,312.625519 461.807587,310.297241 461.715546,307.870483 
	C461.450745,300.887573 462.092194,293.851196 462.759979,286.872467 
	C462.860870,285.818207 465.004700,284.959442 466.582031,284.002930 
	C466.705627,285.723297 466.450653,287.450928 466.184265,289.552429 
z"/>
<path fill="#F7F9FA" opacity="1.000000" stroke="none" 
	d="
M264.905426,253.093521 
	C264.196136,257.184479 263.082214,261.228027 261.696716,265.776398 
	C261.205780,266.498413 261.078339,266.760376 261.042816,267.067139 
	C261.042816,267.067139 261.044189,266.994659 260.709778,267.055511 
	C259.914429,268.077972 259.453552,269.039612 258.992676,270.001221 
	C258.345978,268.899963 256.993835,267.666351 257.171478,266.719788 
	C258.068024,261.942474 259.362976,257.239990 260.546265,252.396271 
	C261.948517,252.626694 263.224640,252.836395 264.905426,253.093521 
z"/>
<path fill="#EBF8FC" opacity="1.000000" stroke="none" 
	d="
M258.988861,270.372040 
	C259.453552,269.039612 259.914429,268.077972 260.729431,267.085968 
	C260.021942,274.325806 258.831207,281.580994 257.982056,288.875946 
	C257.744659,290.915527 258.514954,293.072388 258.820496,295.591461 
	C257.879913,293.935425 256.399323,291.932068 256.126312,289.775818 
	C255.675568,286.215363 256.004547,282.556213 256.005402,278.472992 
	C256.998962,275.585846 257.992004,273.164337 258.988861,270.372040 
z"/>
<path fill="#EBF8FC" opacity="1.000000" stroke="none" 
	d="
M425.473999,96.944977 
	C422.466827,89.611458 416.868866,87.772102 409.484619,92.107674 
	C409.018463,88.263741 410.063904,86.443619 414.753326,87.593414 
	C418.590118,88.534149 422.895813,88.072433 425.269775,91.949539 
	C426.048920,93.222038 425.663300,95.207726 425.473999,96.944977 
z"/>
<path fill="#F6FAFC" opacity="1.000000" stroke="none" 
	d="
M475.804932,265.148987 
	C473.350586,270.681580 470.541107,276.200165 467.429596,281.888062 
	C467.615112,279.026917 467.435730,275.655365 468.765472,273.055725 
	C470.298035,270.059692 473.163239,267.745331 475.804932,265.148987 
z"/>
<path fill="#F2F8FA" opacity="1.000000" stroke="none" 
	d="
M633.244385,94.774605 
	C631.506409,91.176056 629.227783,88.312424 624.366821,88.001137 
	C625.306580,84.011894 627.407593,86.940964 628.945129,87.555695 
	C631.963745,88.762634 635.418335,89.983070 633.244385,94.774605 
z"/>
<path fill="#EBF8FC" opacity="1.000000" stroke="none" 
	d="
M368.989410,250.612854 
	C367.982178,250.996567 366.976532,251.003510 365.598999,251.018402 
	C365.189575,249.287918 365.152100,247.549484 365.198547,245.382416 
	C366.518677,246.714554 367.754852,248.475327 368.989410,250.612854 
z"/>
<path fill="#FAFBFB" opacity="1.000000" stroke="none" 
	d="
M261.666931,131.856934 
	C261.999878,132.436752 261.998505,132.870468 261.996155,133.628860 
	C260.599854,134.696625 259.204529,135.439697 257.472839,136.254150 
	C257.080017,133.464157 256.374023,130.012085 261.666931,131.856934 
z"/>
<path fill="#EBF8FC" opacity="1.000000" stroke="none" 
	d="
M365.406433,242.958328 
	C364.416290,241.567902 363.739960,240.122421 363.044312,238.335510 
	C365.502808,238.763367 367.644806,239.717010 365.406433,242.958328 
z"/>
<path fill="#EBF8FC" opacity="1.000000" stroke="none" 
	d="
M362.876526,236.879333 
	C361.326263,236.042221 359.795593,234.827042 358.119751,233.316254 
	C359.615082,234.180832 361.255646,235.341064 362.876526,236.879333 
z"/>
<path fill="#EBF8FC" opacity="1.000000" stroke="none" 
	d="
M357.947998,232.659668 
	C356.646240,232.281433 355.312195,231.533218 353.841187,230.479446 
	C355.108063,230.879150 356.511871,231.584427 357.947998,232.659668 
z"/>
<path fill="#F6FAFC" opacity="1.000000" stroke="none" 
	d="
M490.816559,228.780991 
	C489.904175,229.686569 488.788574,230.321884 487.347046,231.001938 
	C488.218506,230.201370 489.415924,229.356049 490.816559,228.780991 
z"/>
<path fill="#F4F8F9" opacity="1.000000" stroke="none" 
	d="
M265.659515,99.028320 
	C265.829437,99.852531 265.669556,100.709312 265.262268,101.783882 
	C264.467529,101.594002 263.920166,101.186333 263.372833,100.778671 
	C264.025146,100.206085 264.677429,99.633484 265.659515,99.028320 
z"/>
<path fill="#F7F9FA" opacity="1.000000" stroke="none" 
	d="
M469.480652,103.069717 
	C469.833862,104.068169 469.865845,105.139252 469.825378,106.606934 
	C469.555084,105.716476 469.357239,104.429405 469.480652,103.069717 
z"/>
<path fill="#F6FAFC" opacity="1.000000" stroke="none" 
	d="
M577.857727,297.781403 
	C576.846680,297.367157 575.859070,296.580261 574.732666,295.488281 
	C575.689575,295.925049 576.785400,296.666870 577.857727,297.781403 
z"/>
<path fill="#EBF8FC" opacity="1.000000" stroke="none" 
	d="
M196.879562,121.816757 
	C195.690216,121.678986 194.479630,121.160316 193.108978,120.344093 
	C194.252029,120.509644 195.555191,120.972755 196.879562,121.816757 
z"/>
<path fill="#F2F8FA" opacity="1.000000" stroke="none" 
	d="
M620.850159,87.812042 
	C620.550598,88.370705 620.082886,88.688660 619.321228,89.032837 
	C619.578796,88.563156 620.130432,88.067253 620.850159,87.812042 
z"/>
<path fill="#EBF8FC" opacity="1.000000" stroke="none" 
	d="
M176.820251,88.747482 
	C176.518951,89.292122 176.047134,89.612846 175.276978,89.940201 
	C175.535690,89.472397 176.092712,88.997978 176.820251,88.747482 
z"/>
<path fill="#F2F6F8" opacity="1.000000" stroke="none" 
	d="
M230.975464,217.680206 
	C230.457199,217.786789 229.909180,217.606323 229.191498,217.182755 
	C229.663147,217.090820 230.304428,217.242004 230.975464,217.680206 
z"/>
<path fill="#F6FAFC" opacity="1.000000" stroke="none" 
	d="
M485.489380,233.033325 
	C485.663666,233.539764 485.568085,234.091141 485.248779,234.825653 
	C485.089874,234.365280 485.154724,233.721771 485.489380,233.033325 
z"/>
<path fill="#F2F6F8" opacity="1.000000" stroke="none" 
	d="
M212.835022,137.987152 
	C212.633026,138.011673 212.379532,137.761490 212.044708,137.254028 
	C212.236740,137.235321 212.510117,137.473877 212.835022,137.987152 
z"/>
<path fill="#F1F3F4" opacity="1.000000" stroke="none" 
	d="
M356.674072,187.197113 
	C359.330475,191.785980 356.730743,198.021790 351.173584,199.701416 
	C346.945007,200.979477 342.424408,201.847260 338.022064,201.898590 
	C318.366089,202.127701 298.705902,201.983536 279.047302,202.004883 
	C270.388519,202.014282 262.450714,199.062332 255.949554,193.919434 
	C252.259247,191.000092 250.541367,185.549973 248.046417,181.176147 
	C247.093109,179.504913 246.450180,177.656662 245.406631,175.304993 
	C246.327576,174.775528 247.514908,174.092896 248.918610,173.128235 
	C255.238068,184.833267 265.013245,189.445770 278.385590,189.133209 
	C301.802704,188.585861 325.242065,189.028351 348.671265,188.903793 
	C351.220367,188.890244 353.764160,187.875046 356.674072,187.197113 
z"/>
<path fill="#ECF0F3" opacity="1.000000" stroke="none" 
	d="
M265.065582,163.966904 
	C265.263519,162.543518 265.461456,161.120148 265.942749,159.287369 
	C266.307251,158.753113 266.482300,158.549194 266.454498,158.516190 
	C266.270508,158.297821 266.042999,158.116119 265.829651,157.922470 
	C265.981689,150.479095 269.253540,147.169556 276.861603,147.136215 
	C296.128967,147.051758 315.396790,147.078949 334.664398,147.042480 
	C342.537689,147.027573 350.161896,145.843765 357.748474,142.218872 
	C359.170502,141.511765 360.041931,140.622345 360.913361,139.732925 
	C360.987183,139.452393 361.145081,139.232147 361.968842,139.026993 
	C363.194427,139.930130 364.601898,141.184494 364.363556,141.779327 
	C362.041687,147.573685 355.870575,151.505768 349.458282,151.311386 
	C350.406097,155.296646 347.970276,156.138031 344.798401,155.972290 
	C341.504791,155.800186 338.205078,155.092636 334.936707,155.243073 
	C330.098267,155.465744 324.761719,155.122910 320.600525,157.074646 
	C315.940796,159.260193 311.971100,159.454102 307.452118,157.979507 
	C306.220612,157.577652 304.943298,157.053299 303.683350,157.043121 
	C294.033386,156.965302 284.381714,156.940781 274.733002,157.075699 
	C273.510803,157.092773 272.155273,157.937897 271.119202,158.734543 
	C269.008270,160.357651 267.073151,162.209381 265.065582,163.966904 
z"/>
<path fill="#EDF2F3" opacity="1.000000" stroke="none" 
	d="
M349.569031,124.002274 
	C343.961426,123.304199 338.729950,121.967323 333.461731,121.801842 
	C318.668182,121.337196 303.857635,121.442146 289.057953,121.126808 
	C284.964111,121.039589 280.823242,120.562149 276.817535,119.722206 
	C273.366028,118.998466 271.435059,116.581459 272.018799,112.344849 
	C295.600922,111.940628 319.172485,111.951233 342.744080,111.953430 
	C352.990662,111.954384 354.371826,114.242569 349.569031,124.002274 
z"/>
<path fill="#F2F6F8" opacity="1.000000" stroke="none" 
	d="
M265.035645,164.353806 
	C267.073151,162.209381 269.008270,160.357651 271.119202,158.734543 
	C272.155273,157.937897 273.510803,157.092773 274.733002,157.075699 
	C284.381714,156.940781 294.033386,156.965302 303.683350,157.043121 
	C304.943298,157.053299 306.220612,157.577652 307.452118,157.979507 
	C311.971100,159.454102 315.940796,159.260193 320.600525,157.074646 
	C324.761719,155.122910 330.098267,155.465744 334.936707,155.243073 
	C338.205078,155.092636 341.504791,155.800186 344.798401,155.972290 
	C347.970276,156.138031 350.406097,155.296646 349.458282,151.311386 
	C355.870575,151.505768 362.041687,147.573685 364.363556,141.779327 
	C364.601898,141.184494 363.194427,139.930130 362.161621,138.951859 
	C363.999969,133.456665 366.227325,127.991417 368.716003,122.259079 
	C373.322510,140.019257 365.386566,155.902740 346.793701,158.801682 
	C336.306549,160.436783 325.553925,160.480194 314.908142,160.956863 
	C303.308624,161.476242 291.695404,161.709167 280.086182,161.982727 
	C274.736053,162.108810 272.467590,165.122925 272.022705,170.427338 
	C268.570312,170.065384 264.971436,169.505585 265.035645,164.353806 
z"/>
<path fill="#F2F6F8" opacity="1.000000" stroke="none" 
	d="
M360.604034,139.817856 
	C360.041931,140.622345 359.170502,141.511765 358.104309,142.135101 
	C358.704590,141.213608 359.499664,140.558197 360.604034,139.817856 
z"/>
<path fill="#F2F6F8" opacity="1.000000" stroke="none" 
	d="
M265.811035,158.213898 
	C266.042999,158.116119 266.270508,158.297821 266.454498,158.516190 
	C266.482300,158.549194 266.307251,158.753113 266.023865,158.983322 
	C265.811890,158.894211 265.802185,158.699768 265.811035,158.213898 
z"/>
<path fill="#EFF2F4" opacity="1.000000" stroke="none" 
	d="
M581.678955,263.138306 
	C585.302979,264.447418 585.204956,266.229736 583.540466,269.480316 
	C580.561523,275.298065 577.448792,280.557648 571.592102,284.105469 
	C567.816162,286.392822 564.369812,287.606354 559.966492,286.631683 
	C558.009460,286.198486 555.645020,286.632416 553.690857,287.316589 
	C539.779541,292.187317 525.565613,289.435730 511.431946,289.426239 
	C504.823151,289.421814 498.215637,290.861206 491.602631,291.602203 
	C489.682312,291.817352 487.744904,291.880219 485.465820,292.009583 
	C482.184662,285.053436 486.529907,277.670624 496.423920,277.099426 
	C500.235352,276.879456 504.067596,277.044952 507.889099,276.970154 
	C524.316772,276.648712 540.763550,276.679169 557.163879,275.823639 
	C566.807556,275.320618 576.524902,273.679810 581.678955,263.138306 
z"/>
<path fill="#EBF2F6" opacity="1.000000" stroke="none" 
	d="
M498.388184,259.970459 
	C493.374176,257.428162 488.275665,255.532761 485.987305,250.508438 
	C487.967072,249.036545 489.469421,247.919617 490.981689,246.417633 
	C514.092102,246.031464 537.192566,246.039658 560.293091,246.018616 
	C563.561829,246.015640 567.333862,245.951508 567.590454,250.101181 
	C567.816895,253.763474 566.492371,257.538818 561.753784,257.979462 
	C556.379333,258.479248 550.990662,258.972870 545.598938,259.110504 
	C530.008179,259.508575 514.412781,259.726562 498.388184,259.970459 
M496.482727,247.589020 
	C496.482727,247.589020 496.416901,247.479950 496.482727,247.589020 
z"/>
<path fill="#EDF2F3" opacity="1.000000" stroke="none" 
	d="
M471.118256,302.738525 
	C478.447083,310.848938 488.025848,312.130035 498.250671,312.054657 
	C522.850220,311.873291 547.451599,311.937134 572.488892,312.286743 
	C571.228088,315.104675 570.035461,318.571106 567.705322,319.709961 
	C564.783875,321.137756 560.930420,320.937500 557.477173,320.952698 
	C536.501038,321.045074 515.516907,320.677643 494.551880,321.168518 
	C486.952759,321.346436 481.670166,317.582306 476.810211,313.192352 
	C474.032043,310.682861 472.958984,306.285767 471.118256,302.738525 
z"/>
<path fill="#F6F6F6" opacity="1.000000" stroke="none" 
	d="
M470.969910,302.474426 
	C472.958984,306.285767 474.032043,310.682861 476.810211,313.192352 
	C481.670166,317.582306 486.952759,321.346436 494.551880,321.168518 
	C515.516907,320.677643 536.501038,321.045074 557.477173,320.952698 
	C560.930420,320.937500 564.783875,321.137756 567.705322,319.709961 
	C570.035461,318.571106 571.228088,315.104675 572.956909,312.290802 
	C573.635193,311.855255 574.282166,311.800293 575.244629,311.744324 
	C575.797607,311.800659 576.035034,311.858032 576.636230,311.958313 
	C576.888306,319.603210 571.725403,323.885834 564.162354,323.934967 
	C539.685913,324.093994 515.192871,324.485840 490.737488,323.749512 
	C480.927277,323.454132 471.987244,319.374786 468.626831,308.443756 
	C468.251587,307.223145 467.409485,306.061340 466.537262,305.094818 
	C464.296265,302.611603 464.746979,300.687500 467.858032,298.994141 
	C469.093018,300.024994 469.957275,301.117676 470.969910,302.474426 
z"/>
<path fill="#F2F6F8" opacity="1.000000" stroke="none" 
	d="
M226.663803,233.938751 
	C228.335007,234.596970 229.673370,235.233139 231.829391,236.257965 
	C232.584854,240.202072 228.733109,242.130798 225.798813,243.881973 
	C223.395859,245.316010 220.186188,245.623077 217.280411,245.945663 
	C209.929291,246.761765 202.555588,247.423553 195.175018,247.901443 
	C192.110947,248.099823 191.510010,249.830231 190.943542,252.337250 
	C190.237900,255.460251 189.123459,258.519318 187.848938,261.460114 
	C187.609009,262.013702 185.791214,261.883392 184.347504,262.033112 
	C184.267395,260.572205 184.541321,259.146820 185.064362,257.282990 
	C185.385010,256.744232 185.538864,256.590759 185.514221,256.552643 
	C185.387909,256.357269 185.215652,256.191559 185.059448,256.015503 
	C186.383545,249.390488 187.552979,242.726776 189.191833,236.180557 
	C189.449402,235.151703 191.823700,234.038223 193.238464,234.012299 
	C203.178238,233.830139 213.123062,233.922943 223.622742,234.131775 
	C224.452911,234.222610 224.726639,234.109558 225.000366,233.996490 
	C225.443909,233.969894 225.887436,233.943298 226.663803,233.938751 
z"/>
<path fill="#F1F3F4" opacity="1.000000" stroke="none" 
	d="
M126.929718,244.688156 
	C124.261337,247.987503 121.685120,248.970459 118.542191,245.523727 
	C117.877686,244.794968 116.029724,245.027222 114.725815,245.019333 
	C107.764801,244.977219 100.783348,245.310532 93.850830,244.863998 
	C90.540756,244.650833 87.133537,243.365250 84.156006,241.821518 
	C82.940086,241.191116 82.374321,238.606659 82.297791,236.876480 
	C82.272629,236.307693 84.678085,235.213287 86.041954,235.081253 
	C89.809975,234.716522 93.614899,234.732956 97.698120,234.303253 
	C102.021317,233.981186 106.051613,233.954529 110.837189,234.262360 
	C117.323746,234.729568 123.055031,234.862289 128.786316,234.995010 
	C128.517426,236.789078 128.248535,238.583160 127.661819,240.927216 
	C127.231056,241.991287 127.118095,242.505402 127.005142,243.019501 
	C127.004555,243.466400 127.003975,243.913300 126.929718,244.688156 
z"/>
<path fill="#EBF2F6" opacity="1.000000" stroke="none" 
	d="
M169.062332,244.621613 
	C160.832092,245.646484 152.299332,243.706787 144.492432,248.813416 
	C144.880386,244.903473 145.372116,240.783981 146.421021,236.811584 
	C146.732101,235.633392 148.580490,234.090881 149.776535,234.043991 
	C156.559906,233.778015 163.359085,233.915237 171.274170,233.915237 
	C170.489609,237.728760 169.819977,240.983704 169.062332,244.621613 
z"/>
<path fill="#F2F6F8" opacity="1.000000" stroke="none" 
	d="
M175.599518,301.148010 
	C178.460770,300.855530 179.645355,302.040039 178.623962,304.602722 
	C176.580429,309.729950 174.382416,314.795593 172.126526,320.176849 
	C165.844559,317.359467 160.299164,314.872467 154.753784,312.385437 
	C154.901703,311.844971 155.049622,311.304474 155.197540,310.764008 
	C158.258850,311.062042 161.320175,311.360077 164.648178,311.409607 
	C166.313034,311.079315 167.711197,310.997559 169.725555,311.174011 
	C175.575027,310.389740 176.800934,308.207703 175.062744,303.029144 
	C175.169891,302.467163 175.277039,301.905151 175.599518,301.148010 
z"/>
<path fill="#F2F6F8" opacity="1.000000" stroke="none" 
	d="
M182.847061,265.294769 
	C184.259842,265.130005 185.368240,265.237885 186.816574,265.378845 
	C186.158295,269.505585 185.770569,273.393250 184.776123,277.118958 
	C184.535446,278.020691 182.291763,278.387817 180.560364,279.002014 
	C180.948639,274.524658 181.745667,270.046021 182.847061,265.294769 
z"/>
<path fill="#F4F8F9" opacity="1.000000" stroke="none" 
	d="
M174.978928,303.378418 
	C176.800934,308.207703 175.575027,310.389740 170.143372,311.165497 
	C171.595032,308.508423 173.245071,306.118042 174.978928,303.378418 
z"/>
<path fill="#F4F8F9" opacity="1.000000" stroke="none" 
	d="
M128.561615,234.655945 
	C123.055031,234.862289 117.323746,234.729568 111.299606,234.300568 
	C116.783463,234.108475 122.560181,234.212677 128.561615,234.655945 
z"/>
<path fill="#F2F6F8" opacity="1.000000" stroke="none" 
	d="
M179.049316,284.248505 
	C180.134262,284.854309 181.168549,285.710358 182.202820,286.566406 
	C181.762894,286.920990 181.322968,287.275604 180.883026,287.630188 
	C180.430771,286.891479 179.978516,286.152771 179.270721,285.211609 
	C179.009659,284.838989 179.004135,284.668884 179.049316,284.248505 
z"/>
<path fill="#EBF2F6" opacity="1.000000" stroke="none" 
	d="
M142.667023,257.083313 
	C142.801056,257.747528 142.684799,258.645721 142.308258,259.763672 
	C142.170883,259.094727 142.293823,258.205963 142.667023,257.083313 
z"/>
<path fill="#F4F8F9" opacity="1.000000" stroke="none" 
	d="
M127.224541,242.851990 
	C127.118095,242.505402 127.231056,241.991287 127.534500,241.301270 
	C127.631302,241.645065 127.537621,242.164764 127.224541,242.851990 
z"/>
<path fill="#EBF2F6" opacity="1.000000" stroke="none" 
	d="
M141.667816,262.874603 
	C141.755920,263.039276 141.638397,263.364990 141.302185,263.836731 
	C141.209747,263.667084 141.335968,263.351349 141.667816,262.874603 
z"/>
<path fill="#F4F8F9" opacity="1.000000" stroke="none" 
	d="
M185.013824,256.261719 
	C185.215652,256.191559 185.387909,256.357269 185.514221,256.552643 
	C185.538864,256.590759 185.385010,256.744232 185.144470,256.926605 
	C184.973053,256.841766 184.970612,256.674835 185.013824,256.261719 
z"/>
<path fill="#EBF2F6" opacity="1.000000" stroke="none" 
	d="
M143.718155,251.939743 
	C143.919113,252.144958 143.799469,252.442673 143.362747,252.830719 
	C143.152466,252.621460 143.269760,252.325195 143.718155,251.939743 
z"/>
<path fill="#F4F8F9" opacity="1.000000" stroke="none" 
	d="
M224.750534,233.973801 
	C224.726639,234.109558 224.452911,234.222610 224.090363,234.168594 
	C224.167923,233.984695 224.334305,233.967896 224.750534,233.973801 
z"/>
<path fill="#FEFEFE" opacity="1.000000" stroke="none" 
	d="
M337.063568,290.158020 
	C336.604370,290.785248 336.145203,291.412506 335.167145,291.803619 
	C332.764557,292.349304 330.880890,293.131165 328.997192,293.913025 
	C314.310730,293.937347 299.624237,293.961700 284.425323,293.570648 
	C283.678284,292.037811 283.049713,290.832886 283.275177,289.817596 
	C284.452972,284.513550 285.158569,278.946838 287.357910,274.071198 
	C289.624084,269.047272 292.766357,263.442596 299.224915,263.145782 
	C309.947693,262.652985 320.708862,262.970642 331.453735,262.995758 
	C335.246643,263.004639 339.067993,263.062134 339.082001,268.468323 
	C339.091034,271.969818 340.621826,276.457520 338.995972,278.742065 
	C336.530365,282.206482 337.699615,284.305481 339.088257,287.035126 
	C338.912811,287.587677 338.737366,288.140259 338.071625,288.967346 
	C337.408752,289.547272 337.236176,289.852661 337.063568,290.158020 
z"/>
<path fill="#F4F8F9" opacity="1.000000" stroke="none" 
	d="
M339.359192,286.804657 
	C337.699615,284.305481 336.530365,282.206482 338.995972,278.742065 
	C340.621826,276.457520 339.091034,271.969818 339.082001,268.468323 
	C339.067993,263.062134 335.246643,263.004639 331.453735,262.995758 
	C320.708862,262.970642 309.947693,262.652985 299.224915,263.145782 
	C292.766357,263.442596 289.624084,269.047272 287.357910,274.071198 
	C285.158569,278.946838 284.452972,284.513550 283.275177,289.817596 
	C283.049713,290.832886 283.678284,292.037811 283.960022,293.515289 
	C282.365723,293.930817 280.724243,293.983978 279.082947,294.042358 
	C276.166138,294.146118 274.545380,292.651215 275.036224,289.840881 
	C276.201172,283.170746 277.673035,276.554199 279.580139,270.067078 
	C280.930725,270.308929 281.722046,270.399750 282.513397,270.490570 
	C282.510071,270.126068 282.506775,269.761536 282.503479,269.397003 
	C281.604004,269.276764 280.704559,269.156494 279.805084,269.036255 
	C280.177551,267.286835 280.550018,265.537415 281.362305,263.570374 
	C284.769531,264.378326 287.418549,264.804932 288.160400,260.568176 
	C288.263123,259.981598 289.169434,259.364410 289.839233,259.074127 
	C299.805298,254.754700 310.137512,254.466324 320.803345,255.641129 
	C327.322327,256.359161 333.984894,255.773758 340.674866,255.773758 
	C341.329437,258.499542 340.204102,262.475830 345.092896,261.983551 
	C343.272003,270.180420 341.451080,278.377319 339.359192,286.804657 
z"/>
<path fill="#EDF2F3" opacity="1.000000" stroke="none" 
	d="
M345.167847,261.611572 
	C340.204102,262.475830 341.329437,258.499542 340.674866,255.773758 
	C333.984894,255.773758 327.322327,256.359161 320.803345,255.641129 
	C310.137512,254.466324 299.805298,254.754700 289.839233,259.074127 
	C289.169434,259.364410 288.263123,259.981598 288.160400,260.568176 
	C287.418549,264.804932 284.769531,264.378326 281.463379,263.199921 
	C281.145111,262.717133 281.104370,262.369293 281.194763,262.059784 
	C285.787140,246.335892 286.248230,245.955215 302.704559,245.912659 
	C315.594971,245.879333 328.485901,245.905762 341.376068,245.990677 
	C347.532288,246.031235 348.366119,247.099762 347.170807,253.047485 
	C346.618408,255.796326 345.890900,258.509949 345.167847,261.611572 
z"/>
<path fill="#EDF2F3" opacity="1.000000" stroke="none" 
	d="
M355.987793,301.992767 
	C354.751282,304.781647 353.514771,307.570496 351.779297,310.714478 
	C340.474365,318.302002 328.034027,320.409119 315.582367,320.784210 
	C299.662720,321.263824 283.412537,323.092041 268.275574,315.186768 
	C264.897003,313.422272 262.748566,311.891479 263.334106,308.141113 
	C267.779358,309.185150 271.896637,310.082245 276.013885,310.979370 
	C277.103943,311.005310 278.194031,311.031250 279.992126,311.373047 
	C296.866241,311.779938 313.032349,311.879608 329.198578,311.926544 
	C329.774414,311.928223 330.351746,311.408569 330.928375,311.131897 
	C331.695496,311.077301 332.462585,311.022705 333.843597,311.254517 
	C336.633209,310.732574 338.808960,309.924255 340.984680,309.115906 
	C341.376801,309.043365 341.768951,308.970825 342.794739,308.915039 
	C343.936890,308.588745 344.445374,308.245667 344.953827,307.902618 
	C344.953827,307.902618 344.925690,307.980225 345.286072,307.970459 
	C347.398163,306.838593 349.113922,305.654449 350.912201,304.612701 
	C352.557709,303.659393 354.292389,302.859955 355.987793,301.992767 
z"/>
<path fill="#EBF8FC" opacity="1.000000" stroke="none" 
	d="
M364.703827,254.257645 
	C368.748077,258.275024 364.830414,262.524719 364.679077,266.766632 
	C364.578888,269.574158 363.525085,271.924896 366.233002,274.257141 
	C367.199158,275.089264 366.782776,277.526489 366.081848,279.543732 
	C365.329224,278.367737 364.576599,277.191772 363.474335,275.469421 
	C362.057129,277.559662 360.935974,279.213287 359.477509,280.937897 
	C360.907562,272.183289 362.674927,263.357727 364.703827,254.257645 
z"/>
<path fill="#EBF8FC" opacity="1.000000" stroke="none" 
	d="
M356.063416,301.626282 
	C354.292389,302.859955 352.557709,303.659393 350.912201,304.612701 
	C349.113922,305.654449 347.398163,306.838593 345.271362,307.931885 
	C349.706726,302.563477 355.377350,297.815552 356.935181,290.250549 
	C357.398193,288.002075 357.944031,285.770691 358.718506,283.261902 
	C359.158844,284.987640 359.412415,286.980286 359.479523,288.979187 
	C359.527832,290.418304 358.854828,292.047119 359.326111,293.275787 
	C360.786835,297.083954 360.073364,299.740692 356.063416,301.626282 
z"/>
<path fill="#EBF8FC" opacity="1.000000" stroke="none" 
	d="
M275.756958,310.727386 
	C271.896637,310.082245 267.779358,309.185150 263.197998,307.833557 
	C261.491577,306.249115 260.249268,305.119202 259.006989,303.989258 
	C258.844635,302.128815 258.682281,300.268402 258.808868,298.182190 
	C262.748108,304.510162 267.902740,309.092957 275.756958,310.727386 
z"/>
<path fill="#EBF8FC" opacity="1.000000" stroke="none" 
	d="
M330.468994,311.088257 
	C330.351746,311.408569 329.774414,311.928223 329.198578,311.926544 
	C313.032349,311.879608 296.866241,311.779938 280.397705,311.426849 
	C296.733398,311.124695 313.371490,311.084625 330.468994,311.088257 
z"/>
<path fill="#F4F8F9" opacity="1.000000" stroke="none" 
	d="
M329.370209,293.959961 
	C330.880890,293.131165 332.764557,292.349304 334.856873,291.859528 
	C333.291443,292.770020 331.517334,293.388458 329.370209,293.959961 
z"/>
<path fill="#EBF8FC" opacity="1.000000" stroke="none" 
	d="
M340.611328,309.134949 
	C338.808960,309.924255 336.633209,310.732574 334.228149,311.273132 
	C336.078522,310.388275 338.158234,309.771149 340.611328,309.134949 
z"/>
<path fill="#EDF2F3" opacity="1.000000" stroke="none" 
	d="
M279.779907,269.177338 
	C280.704559,269.156494 281.604004,269.276764 282.503479,269.397003 
	C282.506775,269.761536 282.510071,270.126068 282.513397,270.490570 
	C281.722046,270.399750 280.930725,270.308929 279.933197,269.910889 
	C279.726990,269.603699 279.754700,269.318420 279.779907,269.177338 
z"/>
<path fill="#EBF8FC" opacity="1.000000" stroke="none" 
	d="
M344.636047,307.903778 
	C344.445374,308.245667 343.936890,308.588745 343.094299,308.916901 
	C343.279510,308.569641 343.798889,308.237274 344.636047,307.903778 
z"/>
<path fill="#F4F8F9" opacity="1.000000" stroke="none" 
	d="
M337.290680,290.027496 
	C337.236176,289.852661 337.408752,289.547272 337.828888,289.135162 
	C337.890228,289.317932 337.704010,289.607452 337.290680,290.027496 
z"/>
<path fill="#EBF8FC" opacity="1.000000" stroke="none" 
	d="
M261.242737,266.957153 
	C261.078339,266.760376 261.205780,266.498413 261.607361,266.160156 
	C261.811005,266.367279 261.695374,266.636627 261.242737,266.957153 
z"/>
<path fill="#FEFEFE" opacity="1.000000" stroke="none" 
	d="
M192.085815,174.184052 
	C188.616058,180.983887 182.091721,183.865952 175.139816,186.707367 
	C173.374405,186.996750 172.189285,187.522705 171.004181,188.048645 
	C168.945129,188.396606 166.886093,188.744553 164.199341,188.794189 
	C162.038803,188.684906 160.505966,188.873947 158.973145,189.062988 
	C156.551376,188.801483 154.129623,188.539978 151.320374,187.802414 
	C150.286179,187.224289 149.639450,187.122223 148.992737,187.020172 
	C146.755905,185.545486 144.519089,184.070801 142.282349,181.982727 
	C143.329559,179.371124 145.915237,177.710602 143.268082,174.972275 
	C142.707260,174.392136 143.173325,172.748260 143.280762,171.605255 
	C143.804489,166.033722 148.242447,163.154999 151.778366,159.819092 
	C159.802017,152.249298 169.548401,149.093933 180.059891,152.506088 
	C184.260483,153.869644 188.343018,158.051254 190.653717,162.014465 
	C192.539917,165.249588 191.710953,170.067764 192.085815,174.184052 
z"/>
<path fill="#ECF0F3" opacity="1.000000" stroke="none" 
	d="
M135.087555,164.011520 
	C136.796585,151.055817 145.079788,143.028152 155.811264,137.177795 
	C165.683899,131.795654 176.123413,131.023041 186.470215,135.834976 
	C195.959625,140.248169 200.800125,149.755127 198.997803,160.449921 
	C197.862122,157.800766 198.198608,153.862381 196.564835,152.704819 
	C190.674103,148.531097 185.408966,143.719772 177.409271,142.273773 
	C165.943985,140.201309 146.678116,148.190506 140.987061,158.952820 
	C139.860519,161.083221 137.096466,162.347717 135.087555,164.011520 
z"/>
<path fill="#E5F0F5" opacity="1.000000" stroke="none" 
	d="
M207.378082,185.082581 
	C209.422653,185.125443 212.182266,185.096710 210.278793,187.836990 
	C207.228714,192.227936 204.147049,196.923691 200.045959,200.196442 
	C187.835449,209.940659 174.523132,217.003143 157.950378,213.241409 
	C156.278946,212.862030 154.346085,213.339874 152.587662,213.688126 
	C143.870270,215.414520 134.155991,208.161789 134.050140,199.334671 
	C140.173035,201.384567 146.069839,204.920807 152.408554,206.118927 
	C169.175400,209.288116 184.296112,204.625671 197.525925,193.958603 
	C200.881485,191.253052 203.922241,188.157059 207.378082,185.082581 
z"/>
<path fill="#F6FAFC" opacity="1.000000" stroke="none" 
	d="
M192.389984,174.006241 
	C191.710953,170.067764 192.539917,165.249588 190.653717,162.014465 
	C188.343018,158.051254 184.260483,153.869644 180.059891,152.506088 
	C169.548401,149.093933 159.802017,152.249298 151.778366,159.819092 
	C148.242447,163.154999 143.804489,166.033722 143.280762,171.605255 
	C143.173325,172.748260 142.707260,174.392136 143.268082,174.972275 
	C145.915237,177.710602 143.329559,179.371124 142.146606,181.674698 
	C139.989655,178.572342 137.968521,175.164597 136.336945,171.372284 
	C138.803101,168.415482 142.017059,166.091797 142.648209,163.203705 
	C143.329636,160.085495 144.463776,158.144974 146.915787,156.572098 
	C148.860733,155.324448 150.851547,154.133011 152.700562,152.753830 
	C159.793243,147.463440 167.850510,144.613129 176.487274,146.196503 
	C185.087708,147.773193 192.642258,151.739273 195.479965,161.230743 
	C195.729416,162.065079 197.314240,162.500168 198.278809,163.120697 
	C196.417252,166.689941 194.555695,170.259186 192.389984,174.006241 
z"/>
<path fill="#F6F6F6" opacity="1.000000" stroke="none" 
	d="
M198.480621,162.910492 
	C197.314240,162.500168 195.729416,162.065079 195.479965,161.230743 
	C192.642258,151.739273 185.087708,147.773193 176.487274,146.196503 
	C167.850510,144.613129 159.793243,147.463440 152.700562,152.753830 
	C150.851547,154.133011 148.860733,155.324448 146.915787,156.572098 
	C144.463776,158.144974 143.329636,160.085495 142.648209,163.203705 
	C142.017059,166.091797 138.803101,168.415482 136.359436,170.994156 
	C135.766632,168.918167 135.540878,166.835739 135.201324,164.382416 
	C137.096466,162.347717 139.860519,161.083221 140.987061,158.952820 
	C146.678116,148.190506 165.943985,140.201309 177.409271,142.273773 
	C185.408966,143.719772 190.674103,148.531097 196.564835,152.704819 
	C198.198608,153.862381 197.862122,157.800766 198.719864,160.733917 
	C198.900925,161.569763 198.791687,162.135025 198.480621,162.910492 
z"/>
<path fill="#E5F0F5" opacity="1.000000" stroke="none" 
	d="
M134.008560,198.599625 
	C132.606369,199.534698 131.130966,200.148926 128.611725,201.197708 
	C128.382034,198.408264 128.193329,196.116745 128.013092,193.395660 
	C129.992813,194.736984 131.964081,196.507889 134.008560,198.599625 
z"/>
<path fill="#F6FAFC" opacity="1.000000" stroke="none" 
	d="
M159.221710,189.303452 
	C160.505966,188.873947 162.038803,188.684906 163.798889,188.778015 
	C162.507523,189.221405 160.988892,189.382660 159.221710,189.303452 
z"/>
<path fill="#F6FAFC" opacity="1.000000" stroke="none" 
	d="
M171.368256,188.055984 
	C172.189285,187.522705 173.374405,186.996750 174.781204,186.738770 
	C173.912704,187.358932 172.822510,187.711121 171.368256,188.055984 
z"/>
<path fill="#E5F0F5" opacity="1.000000" stroke="none" 
	d="
M124.978317,188.669983 
	C124.388161,188.462891 123.751396,187.941498 123.136414,187.064545 
	C123.749367,187.257858 124.340546,187.806778 124.978317,188.669983 
z"/>
<path fill="#F6FAFC" opacity="1.000000" stroke="none" 
	d="
M149.162292,187.261261 
	C149.639450,187.122223 150.286179,187.224289 150.969940,187.609039 
	C150.448593,187.761932 149.890213,187.632156 149.162292,187.261261 
z"/>
<path fill="#EDF2F3" opacity="1.000000" stroke="none" 
	d="
M545.214111,129.594040 
	C543.300964,129.179810 541.177856,128.750443 539.683594,127.542839 
	C536.104980,124.650742 532.504822,123.981155 527.784119,124.350533 
	C518.077148,125.110085 508.273407,124.712013 498.510498,124.643654 
	C494.225159,124.613655 489.886780,124.571823 485.674408,123.898079 
	C481.679626,123.259132 477.818054,121.787331 473.030426,120.437119 
	C474.944519,117.581459 475.922180,116.122849 476.950562,114.323189 
	C495.572632,114.013138 514.144287,113.999733 532.715210,114.113411 
	C536.336304,114.135582 540.034180,114.305603 543.533936,115.112679 
	C544.903137,115.428413 546.760010,117.682205 546.764893,119.059105 
	C546.776917,122.445984 545.843323,125.836205 545.214111,129.594040 
z"/>
<path fill="#EDF2F3" opacity="1.000000" stroke="none" 
	d="
M411.813416,162.292068 
	C414.355377,156.421738 418.828522,155.590836 424.363281,155.895233 
	C431.908569,156.310226 439.493713,155.999985 447.530273,156.000946 
	C447.092346,162.566269 442.338715,164.423416 436.732880,164.939941 
	C431.159698,165.453430 425.559113,165.675705 419.968536,165.990265 
	C417.752228,166.114944 415.160614,165.325317 414.639893,168.852982 
	C414.589355,169.195114 412.498291,169.236038 411.110168,169.105774 
	C410.880310,168.396698 410.894745,167.998627 411.175354,167.165100 
	C411.337646,166.170486 411.233765,165.611343 411.129883,165.052216 
	C411.312012,164.229385 411.494110,163.406540 411.813416,162.292068 
z"/>
<path fill="#EBF8FC" opacity="1.000000" stroke="none" 
	d="
M388.677673,219.941559 
	C384.360840,220.971481 382.688690,219.479095 382.796143,214.179459 
	C384.850403,215.893753 386.626221,217.820587 388.677673,219.941559 
z"/>
<path fill="#EBF8FC" opacity="1.000000" stroke="none" 
	d="
M399.571594,216.973145 
	C398.160461,221.325531 395.595032,222.512665 391.092621,220.625671 
	C393.742462,219.216766 396.481781,218.129868 399.571594,216.973145 
z"/>
<path fill="#EBF8FC" opacity="1.000000" stroke="none" 
	d="
M400.681458,214.182877 
	C400.810364,214.943329 400.692383,215.918579 400.235352,216.909088 
	C400.075714,216.082123 400.255157,215.239899 400.681458,214.182877 
z"/>
<path fill="#F4F8F9" opacity="1.000000" stroke="none" 
	d="
M411.069092,165.374329 
	C411.233765,165.611343 411.337646,166.170486 411.222260,166.868500 
	C411.004791,166.570404 411.006561,166.133423 411.069092,165.374329 
z"/>
<path fill="#EBF8FC" opacity="1.000000" stroke="none" 
	d="
M401.109070,211.267136 
	C401.297668,211.199356 401.451294,211.356216 401.555176,211.541046 
	C401.581482,211.587799 401.449097,211.723755 401.241455,211.900711 
	C401.093262,211.982697 401.055634,211.502151 401.109070,211.267136 
z"/>
<path fill="#F6F6F6" opacity="1.000000" stroke="none" 
	d="
M258.860718,304.325073 
	C260.249268,305.119202 261.491577,306.249115 262.869995,307.686646 
	C262.748566,311.891479 264.897003,313.422272 268.275574,315.186768 
	C283.412537,323.092041 299.662720,321.263824 315.582367,320.784210 
	C328.034027,320.409119 340.474365,318.302002 351.638336,311.032349 
	C348.477051,316.415161 343.693054,320.742432 337.409393,321.748657 
	C328.616699,323.156616 319.629883,323.747040 310.713715,323.885193 
	C300.435944,324.044464 290.107605,323.756805 279.870209,322.868439 
	C270.761536,322.078033 264.077057,316.552765 258.966766,309.253326 
	C258.219910,308.186523 258.766418,306.214203 258.860718,304.325073 
z"/>
<path fill="#F6FAFC" opacity="1.000000" stroke="none" 
	d="
M496.449829,247.534485 
	C496.416901,247.479950 496.482727,247.589020 496.449829,247.534485 
z"/>
</svg>